<mxfile host="app.diagrams.net" modified="2022-11-22T04:15:24.591Z" agent="5.0 (X11; Linux x86_64) AppleWebKit/537.36 (KHTML, like Gecko) Chrome/107.0.0.0 Safari/537.36" etag="hLIdE0kOgg48-cj7jis9" version="20.5.3" type="github">
  <diagram id="RtP6d8wIW52egxs5TpZ8" name="Page-1">
    <mxGraphModel dx="1086" dy="714" grid="1" gridSize="10" guides="1" tooltips="1" connect="1" arrows="1" fold="1" page="1" pageScale="1" pageWidth="1169" pageHeight="827" math="0" shadow="0">
      <root>
        <mxCell id="0" />
        <mxCell id="1" parent="0" />
        <mxCell id="Z6Ugq1CfW-JIsn3a16Bj-62" value="" style="rounded=1;whiteSpace=wrap;html=1;labelBackgroundColor=none;fontColor=#FFFFFF;fillColor=none;" vertex="1" parent="1">
          <mxGeometry x="510" y="200" width="80" height="91.5" as="geometry" />
        </mxCell>
        <mxCell id="Z6Ugq1CfW-JIsn3a16Bj-48" value="" style="swimlane;startSize=0;labelBackgroundColor=none;fontColor=#FFFFFF;fillColor=#FFFFFF;" vertex="1" parent="1">
          <mxGeometry x="380" y="322" width="330" height="92" as="geometry" />
        </mxCell>
        <mxCell id="Z6Ugq1CfW-JIsn3a16Bj-54" value="" style="edgeStyle=orthogonalEdgeStyle;rounded=0;orthogonalLoop=1;jettySize=auto;html=1;fontColor=#FFFFFF;startArrow=none;startFill=0;" edge="1" parent="Z6Ugq1CfW-JIsn3a16Bj-48" source="Z6Ugq1CfW-JIsn3a16Bj-49" target="Z6Ugq1CfW-JIsn3a16Bj-51">
          <mxGeometry relative="1" as="geometry" />
        </mxCell>
        <mxCell id="Z6Ugq1CfW-JIsn3a16Bj-49" value="" style="rounded=1;whiteSpace=wrap;html=1;labelBackgroundColor=none;fontColor=#FFFFFF;fillColor=none;" vertex="1" parent="Z6Ugq1CfW-JIsn3a16Bj-48">
          <mxGeometry x="125" y="7" width="90" height="73" as="geometry" />
        </mxCell>
        <mxCell id="Z6Ugq1CfW-JIsn3a16Bj-21" value="Docker Image" style="sketch=0;aspect=fixed;html=1;points=[];align=center;image;fontSize=12;image=img/lib/mscae/Docker.svg;labelBackgroundColor=none;" vertex="1" parent="Z6Ugq1CfW-JIsn3a16Bj-48">
          <mxGeometry x="147" y="11.500000000000027" width="50" height="41" as="geometry" />
        </mxCell>
        <mxCell id="Z6Ugq1CfW-JIsn3a16Bj-22" value="Github Actions" style="shape=image;verticalLabelPosition=bottom;labelBackgroundColor=default;verticalAlign=top;aspect=fixed;imageAspect=0;image=data:image/png,iVBORw0KGgoAAAANSUhEUgAAAMgAAADICAYAAACtWK6eAAAnO0lEQVR4nOyde2wb173nj1yie/4QuqPCuBnsFST21N24aMqk67QxYHl52ExSp3WbtLERX5tFlNuUcXtTOMXm2srednmIJltVm6DOxt04vO7GQug0XicbZ6+zVeoJeLjSRR3UQl3GbVysMyW1vthJ63s1CYSLg65QLUY8tGWFnHNmOEMOqfkAgRFxHoff4W/O6/eIgQ4DUbIfInwjAOAmRSMbAQBx/l8//3c1lwEAFgDgEgDgoqWTiwCA8wCANyw9d7kDXyGih+nrxE0VLbsFIrwNIqwBAG4GAPhlqBUAALV0MsUM+iozSgs+XTdijdI2A1G07CaIcBoivAMAMNiGWzIAwJSlkwIz6CvMKC224Z4RPUagBgJRMgYRvkfRyEO8p+gUJjPoYUsnzzCjZHawHRFdRiAGYhuGopE9EOHvAAA2BHEPjzBuKD+IDCVCBt8NRNGyn1M0chAAsNHva/uIxQz6uKWTJ5hRYp1uTER48c1AIEqqaoY+BQDY4dc128AFSyd7LT1X6nRDIsLJB/y4iJop3q1o5GcAgH/jx/XayHqI8ChEeP3ifKW4OF+NJvIR19BSDwJREioa+SFEeK9P7bHstzp/s1f4nsfKpdoYAGBQ0YjK90hu8HFF7JyZxzuYUXrbp+tF9ACeDYQPqf6uxdUp+8d/ytLJFN/ou+D2AoqWXQ8A2AIR1iDC21pcFLDnJrvMfOq1Fq4R0UN4MhCIkterGap7fHvbw5iTfH/iNb8nyYqWvZHvt4zaQygv7WMGfdDMp57xs10R3YlrA1EzRfttfdLDj295iZUZ9AlLz11ye1+38OHfHojwmJdehRn0ITOfejKY1kV0C64MhBvHFPeTkmWR7z081om9B74ncy9E+FH7K7g5NzKSCGkD4cOqGZc9xxlLJ/dbeu7X3prnHxAlFUUj34MIP+jmvMhI1jZSy7x8Qj7j4g1s9xr//vKJ0a8vzE6+01oT/WFxvsoWZid/CgCg3EnyQzLnxQbi2yDC5xdmJ98KvpURYUNoIPZYXs3Q0y52xk1LJ7dfPnHf8cX56p9ab6K/MKNUZQZ9rn/TaEJ2bhIbiH8eAPA/mVEKhbFHtA+hgazfefSp2ED8S5LXO2fm8daF2cnftt604Ficr/4zM+jx2ED8w7GB+GckTvkgRHgbM+ik3RO1oYkRIcFxDqJmindDhF+UvNaMmcd3dFsMhpop/juI8OOSh79YGevbGXCTIkLEumYfQJQchAgfkbxOVxqHjZlPPWFPxCUP36FminsCblJEiGg6xBo8UPmxpG+VPay6tRuNo87C7OQbEGEYG4iPiI6NDcT/LTPos/YwrT2ti+gkDYdY3GV9SuJ808zjT7nd34AoqSoa+RpEeDuf/Cv2tfiy8Iv2/KATEYDx8aWfAAB2SRx6pDLW9/U2NCmiw7yvB4EoGVu/8+j/kNjvWLR0crvbCbmaKe5TNHIyNhDfxl1VIP+o3zYWiPBX+jeN7gYA/IYZpd+5+jYtwgz6Wv+m0S8BAP5McKjds56MVrV6n/fNQRSN7JFZ0mUG/Y6l595wczM1U/whRPigxE78BkUjenx86VmIkl78qTxhDxMtnezi8eyOKBqRndhHdDHX9CDcLeO/AQA+LDjvzOUTo193s8/BV4v+g8v23dS/afQvIcK/X5id/JXLcz3BjNIfIMIsNhC/XXAoAgBMMaP0D+1oV0RnuKYHgQjfI7F5Zg+t7nczR7DnHNwXygvrIcJH4+NLRUXLtiW+3dLJkzzXliOKRsba0Z6IznFND6Jm6H8FAPwrpxOYQf/L5RP3Tbq5yfqdRw/EBuKf9dpIThwinIEIg8X5ys+D3KXn1/4Nd5l3wjbY55hRsoJqS0RnudKDKFp2k0TwE7N08pjbm/DVKj+Adk+kZuibipa9xadrNoTHqZ8SHBaDCD8QZDsiOssVA4EIp0UH1+I5PLms3+DhHCc2Kho5o2aKT0OUVHy+9hUsnRDRMTK6RXQvKw1ElI1kkRn0CY/3EaUWPcsjDV0BEd6rZuhbaqZ4t8d2OWLpuVkAwIzgsEFFy24J4v4RnWfZQPgDFoXPngwqEtDSySFLJ/bw7oyH01WI8Ivx8aW/gyjZKNl1y20THSPxconoUpYNhCc7cMTSSSHIhlh67ldmHm/lflFe3Fa223MTNVPcB1HSt6z1zKCviNrj4xwrImTUDUQTHLfADBp4pg9mlBbNfOpJM48/bvdYHi7RDxE+qGboz/migx9tYhJt2aBoWd97r4jOsw6iZL/E6tWpdqboZEbpUmWs78vMoDt4HRC33Mwn8f+Jf7+WsHQiY6zRPKQHWceL1zgOSXjeqrZj5lMvmXn8SWbQQx4m8TGI8MN82PWFVtrBDPq66BiIcCez10cEhD3EukniOFc+V37CjJJl5lPfsnQyIrO73YA4RPhUfHzpBERJV1lNVrYBAHDO6RiIsIyOEV3GOl72zAnLS8ZDv7H03Bs113o6JuNM2IAdvDfxOhQ6K/g8zNnsIzyyrkkdwJV03Djq8En8D/gkXvdwifUQ4SlFy37C7YmWTkS9l+rHfCciXHSVgdRhRqlSGeu7jRk0zRNcu6Ff0chRD0vBF0UHQIQ9DeEiwss6UWwGz7IeSsx86piZxx8DABx1eerNEOE7XZ5TlTimHbUXI9qITA8S6tLK9gS6MtZ3n6UT7Ka3UzQiE1q7EpnNy3/h8poRIadpVpMVdEUyBkvPlfgk/lHJJWFhgoaVMIPK7MdEQ6weQ8ZAugZmlJiZT33X0skNEkvCLhNZR2Wk1yI9ZSCgFr3YzwOdRMuu0Q8+QojMSo5vjn9Bo2aKX4AIH5KYVwG3q3OKlpXpcbpiOBohT4xPwp0yh4R+ZQai5CCvsHuX7DnMoG73UWT2OP7R5TUjQs46XjizKbxgZiiBKBlTM8V9aoa+5cY4ePCXbFrVOjIviig2vceIcW9Zp2whoXTjVrTsLYq2HMzk2kmwVvHKdVGfj0ocE3hpuYj2EuM7xNjhGL/jyVtiRaWovR7nRzOWTv7a/X2xaNK/YOm5UO8ZRbhnnaUTkQvFIC+13HHUTPEeezjFy6h5MY4jPAu9a2dHCW9doStKRPcRk3Qh3wIAeKUN7WkIRMm4mqFPAwCEocFNuGjpZK+l54RxHU3ub+u0WXCYF1f8iJCzTibWQyIkNxD4JPxv+CTci3EwZtBHzTz+pFfjqLUD3yLhsyZyh4/oQtbxcbOjQ6JMUge/UbTsFjVD3+QpS6GHS1BLJzeZ+dR3Ww0Xlvz+pVbuERFO6jvpoj2BDYqWvbEN7bF7jfXx8aVnFY3MeAxCuswMmq6M9aUsPedLrUSIsMix0bL0nGPEYUR3smwglk6Em2btyCCoZor38uGUKCduM+xJ+MfMfOqYX23iKU5FSbM7ErMfETzLBsIM+qoojBUiPApR0stQRwhEeGN8fGkaInxUonBPI85bOhmpjPV93e9E0opG9oqOsXQiyuEb0aVwA1muLyh6C67nxXV8ByI85tb9nGNPwsfMPP6Upef+3v92LSd5EA2vGE8uF9GDXPHmlcmcaP+QPWYtDGKHecrM44+b+dQPgnJFVzRyQGKB4GQ3FzCNcOaKgfC3oChz+wZFI/d6uA/1cE4zLjGD7qiM9d3BjFJg4cC86I/M8MqtT1dEF3GlgM7ifPVPEOH+2EDcye0ExAbin2EG/fHifNXN0uk/+zDJX2QG/c+XT4zeY+m5X7Z4LSGDBypPSfh5nTfzKdduKxHdwzUBU5ZOnpHIOaUqGvmem5tYeu41j2l66py1dLLZzKe+3Y5qToqWTcqspDGDRoU8e5xrSrAtzlcXIMLrYwNxR7cKuxexh03MKMlk+liGGfR0/6bRtGRcRR3LnoRfPjH6wMLsZFuKZUKU7F+/8+jPeO12Jy7a7QqyFFxE5+lb/Qd77M33IkQ/kEu1JAklaQ9W7lP1smS60xfNPLZ7jLa6kMfHl56V7D1GzXzKVa3GiO7jA6v/wHuRmETRzQ/1bxpNMIMel32LLs5X7R7hx7GB+D/FBuI32NdocNiMpZOMmU99f3G++p70N/EBNVP8WmwgLlOq+uylH3zkr9rQpIgO874eBNTe9FDN0F/KuHowgx4y86lvebm5omXtnuR6vpRq90Szlp7zUgOxZdRMMQkR1mXc6O35kKXnOpbQO6J9NDQQwCeqikaklmeZQR828ymv9Qs7jqJlN/HvKpwftfJCiOg+3jfEqmNPwPmE/TOii8QG4rdDhK2F2cmue6ty4zgFAPiwxOH2xHzn4nz1j21oWkQIaGogYHnOUCn2bxrdLpNkLTYQ3wYRhguzk57jLtqNPazq3zT6M0njWLR0sm1hdlJ65S6i+2k6xKoDUfKjaoaelVjVqvOCmcdfD7v7hT0hhwgflg3dZQZ90MynfhR8yyLChGMPAmorT/MQ4XOxgfguyUyMN/RvGv0SAOB/MaP0B3+a6R8QJfsHD1Se4atVUpklmUGPmPnUd4NvXUTYEBqIzcLs5NsQ4d/HBuKy5Y7/DCL8lxBhtjhf+UVYNtMULZvkm4CO7jSrmLp8YnRPWL5DRHuRMhBQM5JZeyJuzzUkT4nZk/f+TaNfAQD8xs2uu99AlFQHD1SegggfdDFUtJkx8/jOdlb4jQgXwjnIamqF+pd/aG45aenkUUvPzXo41xO2YSgaOcC9ct0Ge83wFEGhnktFBItrAwGtGQngO+WHmEFfCerNzLMu7uXBTl6iIKfMPN4ZGUeEJwMBNSO5m4fIei1cucB7lZPMoK+34qULUTIGEb4FIryNJ1gQxZA3xZ6QWzr5RlQPJAK0YiCg9qa+UdHISZ/y957jbu3neZZCe86ywAx6qf5j5SUI+nki6Y9ChDfyjIebWzDUOovMoA9FS7kRK2nJQADPlatm6N8CAHb406SOcNHSya4g5kfcqLdAhDfz/L4beGKK1ckpLvGIzovMoOeZQc8wg76xloZ5YdSqZQOpo2aKe/i8JBR5fGVhBj1k6eQRP8VVtKzds9l63NVi8m/G52wvMIO+1I5gsXYTdq18MxDAk76pGfp9AMD9fl43IOzh3IN+euUqWvZORSMPe8zQIsL+ARQsnRz0ULohdHSLVr4aSB0+N3kcANCRnL4CLtby9foX7KRo2c8pGhmXDATzA/vh5yw913UZ5btNq0AMpA5fbh0DAGwPQa1De6z6uKWTY36tUPHSb0/z79dulhNzWzoJLO2Rn3SrVoEaSB1Fy8Yhwg/wzCbtrHnI+FLykVayuzdCzRTv4c6Obnbmg+Ccmcc7mFF6u8PtaEo3a9UWA1mJomW3QIR3QIS3t7Jf4YA9OZuydHKKb0b6urIBUTKmaOSHvIhPWFhgBt1l5lOvdrohK+kFrdpuICuxexYAwBY+WfMyJl3geybneX2OUpBZ1iFK9qsZeqKFQj5BssgjO5/sdENAD2nVUQOpI5NJhBmUMIOe56WW7V7iUjtrAvIH/tMWV11s471g6eTCqpos/RDhQb72v1kmQK0ZfLOzo0bSS1p1jYHwEmrPtK9VV6lVuqKnXbrJ29gTQt3SSYEZ9DXZFEl8b+BuPmdzXSOlk0bSa1p1jYHYk+3KWN+X29Ska4iPLz0HAHCTOnWRLy8+1upSrKJlb1U08h2XPzh7CHFXJ+YkvaaVVERdSNgGUbLtqyBqprjP5QOnlk5uqIz13efHPoWl516vjPWl7Imliyz5MYjwCxAlZWq7+0YvatVNBgI9Zpb3jKJlb4QIy+bfXXZ29LP020rMfOq4mcefAgDIFuux5wEveixX4Zpe1aqbDKRenySQKlfvv9fyEuVRyQ3OBWZQLehxvz0ur4z1fZEZ9FHJU25SNPI3QbYJ9LhWXWUgPLN8W1J+Khp5QHLp2bJ0MmLmU22rclur3EsfkjnWfqkoWjaI/aYr9LJW3WYg9pf4DkTJQHfj7bkOLz8tgjGDbrf03K+CbE8j7Dew5NsRui1X4YZe16rrDMR+YakZ+myQY2tFI/tk3CKYQfea+ZTvtRFl4amIZMbZuxQt+4kg2tDrWnWjgdhoikayQVzYnuPIlF4DABTCUP7AzOP7ZFZsFI1IDTPcsBa06lYDWR5q8WVFv697p8TurGXm8bf9vrcX7MkoM+jDEoem/V4mXwtada2BgNoDOui3kSgaEQZ71dxe5AsHuaW2G13cFx9f+ml8fOmt+PjSCUXLbml2vJlPHZcolGq/7e/2s51rQauuNhBw1Uj+1o85CUTJ9RK7sCav5RgI3I/pNA9f3sbdJ3YoGqFqpvhAs/MsnQgnoYpGRDXf3bRzTWjV9QYCakZyv5qhv1C07I0tXudW0Vo+M+iRoPJ5rXDya/TDi9k/BEXLNlzB4/EuFwS3GLHv4U9b14ZWPWEgnJsUjZxVM8WnIUp68vBUNCL04WEGDWSyKekBCwEATYdJzKAF0W0gwrd4b+VV1opWvWQggL859qoZ+rv4+NJzvJyzGxyr+9biTvyPA3fpHt50os0M+pL4Xlj0HWVZE1p1Ok48KOy3R1rRiP3fZe5GfYZ3q29zD9JGOKadYQZtpdZ744a6j51oOjSw9NwFRSOm08oST7TnB2tCq24xEMoMeg4i7GUtf31t86f1CSozlgsJOaJo2Rv4Pc+LAro8PPBLzKCvCI6xXwR3OXy+Iz6+tCR5P8/0iFbxbjEQYOZT31YzRQsiTDrYjKaepzyDy5GVb1ZFI02rbXl44AuWTnaIJr3MoBcgchurFAi9oJXaVXMQM5/KMYNu5yG3naDhW07RshsUjegNhh277Ae7euXIywNnBt0mk+SOGVQ2DiJoekGrwa4yEFAzklfNPP6kC19/37D0XKXR37mbdLPl05GVD97rA3fhxxSKXL69olXXGQiouQxc4r7+biLHgkS0orP84BUtqwb8wLuBrtKqKw2kDo8c+xj39w/cUBQt2ywxt0y2vhFFI7/r9ANvF72iVVcbCKj1JszMp5408/gj9sQMAHBS8iF4odlDn5E8XzYaspUH7ketFj/oBa2srjeQOswoLVp67qXKWN+XzTwesPTlZd3DPL+SXwbTMLDfzOPHeL0KP2jpbahoxHXqm4DoBa3MrlnmdQMzSgvMKB239NxxcLVE2wa+KfTnzXyIeFx1U2qbbLn3pYex50RmHmM1Q2kricx8GiqIHvpZSyeHWrj+MmtEq4vdkheLVsb6Um1ox+8E3a5eGeu7rdmHECWvb+HBt/zAeX2WPzgdwwz6uJlP/bXXe9RZK1r1zBDLJ0R5fR29YZlR+q39dvQwhPBlkgkR/pzoGGbQM63cYwVrQqvIQFZg6aTloCMPD963FRhFIzJJ23xZ6VkrWkUGci2viQ5QNCJM5e/iwfv4wJfT1Ygqep239JxfE+Q1oVVkICuw9NwFXk7BiZtl3OglHrxp5vHNfq3d8x1qUQDTST/uBdaQVpGBrIIZ1HF1BtQElkqxueLBr/ZsvWD/3f7cc0OvaU/2epmcuMygx/y434rr9bxW0SrWKhQtO8h3cUVvmAfNfOpHLq57M98beNvSc0JXcDfEx5eKEvHhM5Wxvq1+3nctaBUZSOP2yKTwX7B0srnTJZnVTHEfT1rgiKWTuyw9J4qPcE2vaxUNsRpg6cvDAtHue7+ikRf9SoLgBTVTTEpmVD8XhHGANaBVZCAN4PljRUH9NhsbxTC0A0XLfgIifEomo7qlL5fiDoRe1yoykCaYefyIZGDWSLsfvJopblE0MuMQV7GSU5aeEy7JtkIvaxUZSBOYUTJl0+bzB/+LoBJEr0TNFO+FCOuSNcctM4+/EXSbelmryEAc4AmXZfcONioaOaNmioHUL4Eoud6eEEOEj8q6gjOD7mVGqS0BZb2qVWQgAsw8/qpEFr46/RDhQ/HxpV94yMnVEIiSUM0U96kZ+r/d1P9jBj3E89C2jV7UKlrmlaAFz9Nl13Jm0JcaZetwQtGyGyDC9hDhfg/3nTLz+IvMKAUVONaUXtMqMhBJeKoaXXKytxoGAJhhBl3O78WT112u54LiOWTtB3s9RPhmiLAmSszmwIyZx3e4/ZH5SS9pFRmIC/iDP9lioE+QdNw46vSKVtEcxAWWnnuD+wvJjrPbScHM41QYjAP0kFaRgbiEO9V92sWKTdDUa45/tRNzDid6QavIQDxgv3kqY31fZgYd7WCWR1BziyA3B11zvBW6XavIQFrAzKcmzTz+OADgaICphhph1Txk8ac7UVbZC92qVWQgLcKMklkZ67vPfjtxn6QgH/5lZlBi5vFHzHzqR2EbUonoRq2iVSyfUbTsIF+Tt7/PBh8uaT9YaunkKN8jCKSkWSfoBq0iAwkQRctuBAB8jpcru0ky66H9kM8DAM5YOqHMoK8HWSU2LIRVq8hA2ghEyX6IcJyn5bxuhZ+QPXl9FwBQaZYVfa0RFq16MrNiWOEZH893uh3dQFi0iibpEREORAYSEeFAZCAREQ5EBhIR4UBkIBERDkQGEhHhQLTM20bCsrbfDQwlkv1DCWetZgrRPkhX42V3WNHImtxJH0nXtNqaltdqa/qqVtMFQufK9PW5crSTHmoC9C86wgz6Si/5Yo2ks4NDCXzvcMJfraYL5Mhcmb4yV+4dX6ynAABOtSQuVsb6PtbGJrlG0bI3Khp5GACwK8Ce2WQGPWzp5ElmlDoZW9ESI+nsjVvTwWtVLdPDMwXy5FzZu1Yf8LdNnknw4PtmfIgZ9PuL89U/tbFNUkCUVAcPVJ6CCB/iQ4MgFz76YwNx3L9pdC9EeGFxvvLLMGrSjKFEUv3mZOWp4UR7tFKui+PEbaN7hxJ44d13Kr989x33WoXCQCDC9rBkh8Mh6xbnKyeYUfp9G5slRM0U71U0cgoAsLnNK4IwNhD/fP+m0S/Z429mlN5p4709sXuieO/WdGe0Uq6Lfz5xW02rubI7rcKyzCtTHGVLG9ohBUTJ/vj40ss8c59MWsuguEnRyFk1U9zXwTY4MpRI9j8ytfTycKLzWm1Nk7O7J9xpFQoDYQY9z/MhNYWvBHUcnhjtFwCAuzrdFk4MInywlmozGapVyaFE8vo9E+HSajiBDz4ytfTcUEJOq5AYyHI4pKg88XaIklJ5VoNC0bK38KyBogL0nSCtZujpTtbgWMlIOnvLnonwarVngp62ezfRgaFYxQK18XwWIkycjrF0ssPScy+1r1VXCThbYH1DrCcyK9rGsTXdmlbVMqVz5atazRRqWo2kr2o1lMA3Dyda0+rYfnzHXDnkmRXB1R+gqBfpyH5Ir+WbDRI+rPKk1XSBHJor05ecfrCNGElnN/D9FE9aHduPvzhXDnFu3jrx8aX/AwAYdDrG0slN7Ux1Yw9Z+JzDzVDBNoyHLT1X8uH+UNHIA7x3lZ7k8ozl32r1/m6whyx8zuFKq+kCeXim0LpWQ4kkHEmTB4YT7rSqlumh5/c31ipUBqJmit+DCH9HcJheGeu7rU1Nso32ZReTzAVm0DE3FV1lgSi5Xs3QH7pM67+rnSUQHplyp1W1TMee3++/VkOJ5Po9E+60qpbpruf3v1+rUEzS6zCD/lgiV5KmZopfaEd71EzxXhcP/IKlk81BGAeoLWRcrqXMXM5QKOVCARE+DFHSsUf2i90T7rSaLpDNQRiHzVy5dPn72/q+Wi3LazWcwIeHEu/XKlQ9CJB/Y18y8/iTQbpbQJRU1Qx9S7KrbuvEWM0Ut/CilDJtO1UZ6/tikO0ZSiTVPRPyWokmxn6ye6K4ZTghr9X3t12rVSh20ldxASK8V3DMh/o3jcaDXNEaPFB5iu/6imj7qtHC7KQ9V5uCCNtDiA8KDv/XfLf97aDa881Jea3aaRw2b56uaTWckNdqrnxVq1ANscDVssIy2cB3BbWDrGjZGyXHrxc6taRq68QMul0mfaeikfGg2jGSlteq3cZRZ6aQ+1W1LKfV1vS1WoWxB7GZhQhnRJ6esYG4BhH+zcLs5Ft+3lzN0Me5M50TC5ZObl+YnfwHP+/thoXZySpE+L3YQHyb4FAVAHCOGSUZlx5X7JmQ02q6QG5/83TntHrz9GR1KIHfU66T02quXNMqdD0IqL0dLzKDyrz1YhDhF9RM8W6/7s1LfO0SHccMOmbpuV/7dV+v8HT+VHQcd8X3lZG0nFbVMh2bKXReq+f3y2nFXfGXCaWBgNp+x2O2JUscWjeSr/lxX4jwvRIxCmeDWq3ygqWTvRLDhxEe4egbQwk5rYJarfLCdEFOKx7hGF4DYUZp0dKJPbaVGbPaRnJEzRSfatVfi0cCOmLp/r+NW8HSc7/l5QQcgQjv8fO+PBLQkelCuLSaKchpNZSoaRVaAwG1B/9rZlDRitYVIMIPqhn6c0XLbvJyP/6GFYV+nvVjh9xveI/r+GaECPvmVcvfsEKt/Ngh95vpglir4URNq1AbCKiNsY8xgz7q4pSbFI2cUTPFpyFKuvXL+ZzoAEsnh1xesy3Y8zYAgC447AZFy/pVdVao1XQhnFrNFOS0Gkln1dAbCKgZyXeZQY+4OMUecu1VM/R3aqb4Q9mxt0TMCWMG7Yg3sQyWToRDB78Cz3j2ESfYXDm8Wk0X5LTqCgMBtYf/DQDACy5PgxDhhxSNvBUfX5pWM8V9AmMRLVfOhKXMciOYQV8THQMRltnQk0GoVSf2PGSZK4u1GkrgzaGKQHPCnrRXxvr+Qs0UTftH7+ESIxBh+z+7p7hc212mF5lBTbuT4sc45mJiBhUuEQLuVTqUwEm+pm7OlWnJbQqaoURS5deAAIDZmUJOWCuD58865/TjhQi7WskaSWfXc11Wxnb8uUirallOq07B82c5ajWcwBu7xkDqmPnUt9VM8QLPIuK1/etrEYrY/sFIn8SDnRzhwUIvrnLbvzRdIDtmCrk3ZO6ze6J4gLtsX1mR25omp47tx38h8Va+IHi7S+Wf4v5VzwIARBtrDeHBTmFHqFXXDLFWYuZTz1j68hi43Wk6Hf2Z7B/V1jSZahDTMmj/3f5cdIPdE8U9wwk8vtI4ONv3TNCfiM63dHJBcIiwDTyuo+jVODiB+X75xXRBrFVXGgiordr8vZnHn+J1t9uFY1rLkTT5KwevUYV/7gjvOZqxfSSdFYWXil4aQq9W3s5WNxW7IV2qUKuuNRBQG3NbvO72iOSue0vUY8ibMZxwngCLPueZNkRDIE97PG4YTuCRVq9RjyHvdrraQOrw3uTTPJjoYgebIpofOH7O46JFbhA9k5u3G+gJAwF8lcvMpyYrY30fs3RyFwBgSsa92Q08+0hTqmU61crnHKfVHzZXpqKd6ZbT/lTLdKbVa/DsI2FHqFXPGMhKLD33SmWs7w5LJx9hBn2I75r68eZd7/ThTIH82P6n2cf8c0e471LDnqZapmSuXDKdzocIi0JsL4naMFMgP+IrPK3gqFUYGEqItepJA6lj6blLZj71ZGWs7zYzjwcsnWDuaHiU/5ArLg3neqcP7SHSsf34jmqZHlzxI1+w/58HCwl7tJlC7lfTheU5lb6iB7xYLdP08/tTPxCdL7HP4Whg/HssHNuPU7wX9oqjVmFgOCHWKnQx6Z0kPr70/5z2VphBD5r51Lfb2yp3xMeX/q9gKffFyljfTtnr8Y1CZeVwda5MrT0T9A9OWtkvhef3h1urR6bEWnXdRmHAnBfsQjuVaOg43I3GcZ9DZrNzJXw1qtGKlKNWPONhaOHeyI5aVcv0XE8PsTwgyux4g6Jl/aiEFAgQYWFkJTOo6DvKItRqJB1erYYSYq3myvRMZCArsHQi9B/iEYehhGc5cYIxg0q5u4iYLoi14hGHoYRnOXGCzZXpG5GBrIAZ9HWJoKP7O51lvhGKlr1VYvfbN2/kubJYq+EEvn8oET6tRtJyWs2VSwuRgayAe8OK3oyqopEH2tQkaRSNiFK22j2k23CBpnBvWKFWI+nwabU1LdZqulDTKjKQVVg6Efp2QYQJRMnQrPOrmeI9AIC2B3tNF8RaDScwGUqER6vdE3Ja1YO9IgNZBf8RifYKFJ5IuuPYhgoRflzi0ILfqVr5j0ioFU8k3XFsQx1OyGlVr4wbGcgqmFGy37SHJQ5N8+TWHUXNLMdsCBNUWzo56Pe958olVi3LacWTW3cUHt8i1Gq6cFWryEAaYOnkSfsf0XEQ4cNqptix4qJqpvg9AMB2iUNfCCrJ3UxBTqvhBD68e6JzWu2ekNdqZZK7sKYe7SiL81UGEV6IDcQ/Lzg0FhuIfwUAMNXuUsxqprgPIvwfJQ5llk52MqP0T0G04913qmwogReU68RaKdfVtHJbirlVdk8U9w0n5LSaLpCdc+WrWkU9SBMsnTwjGWOiKBqZUTPFZBuatQwvNCQ1ZGIGHecpgQJjpiCv1dY0mdk90T6t7J5jOCGnVbVMx3lKoCtEPUgTFuerfwIAnOE1AkUvkg/GBuJpiPB7C7OTvmzENcKekA8eqByPDcTvlzzl3OUTo1/l3yUw3n2nphWvESjUSrkunh5K4PfePB2cVvaE/JuTlePKdfJavfrE6Ff5d7lCZCAO2MMmyezpNuvs43hurTPMKP2jn21RM8V7FI38dwDAzZKnLJh5/Fm/29EMe9gkmT3dZp19HM+tdWau7G8bd08U79madqfVsf34s43aEXnzShAfX3rOTb07vsNcsHTyWKvDG0XL3so3AeXTrwCwyAx6l5lPvdrKvb3wyJQ3raYL5LHVwxu3jKSzt/JNQFdaVcv0ruf3N9YqMhAJIErG1Aw97VJ4wB++bumkwAz6Gt+pF6Jo2Y0Q4bu5b5Xr5AnMoA/xsghtZyiRjO2Z8K7VdIEU5sr0Nb5TL2Qknd04lMB3c98q11pVy/QhXhahIZGBSMLLQf/UfiYtXOYcL/Z5YVVGjX6I8CAPdtrsodb3FTppHHV42iBftOKpea7RaiiBB3mwU0taiYwDRAbiDm4kJ1rMFxUU9rDq4U4bRx1uJKHVqlqmD4uMA0STdHcszlf/yAx6PDYQ/3BsIP6ZTrdnBQvMoDvMfOq5TjekzrvvVP84V6bH/+V18Q8r14VLq2qZ7nh+v5xWUQ/iETVTvAcifFiyvHCQnDPzeEeQVWxbZfdE8Z7hRDi0OrYf71hZxVZEZCAtAFFyUM3QpyVdGPyG1TYByWPMECeD6DRDieTgnonOaVXbBCSPySTOWEk0xGqBxfnqe5ae+wnfULyhlQmjS16wdLLz8on7Xg56E9Av3n2n+t5MoabVcKK9Wk0XyM5Xn7jv5dWbgDJEPYiPKFr2Tl5NtuXUnQ1gfG/lYBiq67bKSDp7J68mG5hW0wVysNXqupGBBADfx9jDawKKkk07YT/oGUsnLzCDvuR3PEcY4PsYe3hNwJa1mi6QF+bK9KV6PEerRAYSMLwm4BaI8Ga+z7GBDy9WT1gv8eCjCjPoOWbQM8ygb4S5opXfjKRrWg0l8Ga+zyHUqlqm5+bK9Mxcmb4RREWr/x8AAP//mC6b1mgHT/IAAAAASUVORK5CYII=;" vertex="1" parent="Z6Ugq1CfW-JIsn3a16Bj-48">
          <mxGeometry x="30" y="10.5" width="50" height="50" as="geometry" />
        </mxCell>
        <mxCell id="Z6Ugq1CfW-JIsn3a16Bj-51" value="" style="rounded=1;whiteSpace=wrap;html=1;labelBackgroundColor=none;fontColor=#FFFFFF;fillColor=none;" vertex="1" parent="Z6Ugq1CfW-JIsn3a16Bj-48">
          <mxGeometry x="240" y="7" width="70" height="73" as="geometry" />
        </mxCell>
        <mxCell id="Z6Ugq1CfW-JIsn3a16Bj-58" value="Terraform" style="shape=image;verticalLabelPosition=bottom;labelBackgroundColor=default;verticalAlign=top;aspect=fixed;imageAspect=0;image=data:image/svg+xml,PHN2ZyB4bWxucz0iaHR0cDovL3d3dy53My5vcmcvMjAwMC9zdmciIGZpbGw9Im5vbmUiIHZpZXdCb3g9IjAgMCA2NCA2NCIgaGVpZ2h0PSI2NHB4IiB3aWR0aD0iNjRweCI+PHBhdGggZmlsbD0iIzQwNDBCMiIgZD0iTTM4LjA2IDI2LjE1MXYxMS40NzNMNDggMzEuODkxVjIwLjQwNmwtOS45NCA1Ljc0NXoiLz48cGF0aCBmaWxsPSIjNUM0RUU1IiBkPSJtMjcuMDMgMjAuNDA2IDkuOTQgNS43NDV2MTEuNDczbC05Ljk0LTUuNzRWMjAuNDA3ek0xNiAxNHYxMS40NzlsOS45NCA1Ljc0di0xMS40OEwxNiAxNHptMTEuMDMgMzAuNjI0IDkuOTQgNS43NHYtMTEuNDhsLTkuOTQtNS43Mzl2MTEuNDh6Ii8+PC9zdmc+;" vertex="1" parent="Z6Ugq1CfW-JIsn3a16Bj-48">
          <mxGeometry x="250" y="7" width="50" height="50" as="geometry" />
        </mxCell>
        <mxCell id="Z6Ugq1CfW-JIsn3a16Bj-41" value="" style="group" vertex="1" connectable="0" parent="1">
          <mxGeometry x="157.9" y="211.5" width="130" height="80" as="geometry" />
        </mxCell>
        <mxCell id="Z6Ugq1CfW-JIsn3a16Bj-42" value="" style="rounded=1;whiteSpace=wrap;html=1;labelBackgroundColor=none;fontColor=#FFFFFF;" vertex="1" parent="Z6Ugq1CfW-JIsn3a16Bj-41">
          <mxGeometry width="130" height="80" as="geometry" />
        </mxCell>
        <mxCell id="Z6Ugq1CfW-JIsn3a16Bj-70" style="edgeStyle=orthogonalEdgeStyle;rounded=0;orthogonalLoop=1;jettySize=auto;html=1;exitX=0.5;exitY=1;exitDx=0;exitDy=0;entryX=0.5;entryY=0;entryDx=0;entryDy=0;fontColor=default;startArrow=none;startFill=0;endArrow=classic;endFill=1;" edge="1" parent="1" source="Z6Ugq1CfW-JIsn3a16Bj-40" target="Z6Ugq1CfW-JIsn3a16Bj-18">
          <mxGeometry relative="1" as="geometry" />
        </mxCell>
        <mxCell id="Z6Ugq1CfW-JIsn3a16Bj-40" value="" style="rounded=1;whiteSpace=wrap;html=1;labelBackgroundColor=none;fontColor=#FFFFFF;" vertex="1" parent="1">
          <mxGeometry x="750" y="327" width="110" height="80" as="geometry" />
        </mxCell>
        <mxCell id="Z6Ugq1CfW-JIsn3a16Bj-5" value="Experiment Tracking" style="shape=image;verticalLabelPosition=bottom;labelBackgroundColor=default;verticalAlign=top;aspect=fixed;imageAspect=0;image=data:image/svg+xml,PHN2ZyB4bWxucz0iaHR0cDovL3d3dy53My5vcmcvMjAwMC9zdmciIGZpbGw9Im5vbmUiIHZpZXdCb3g9IjAgMCAxMDkgNDAiIGhlaWdodD0iNDAiIHdpZHRoPSIxMDkiPiYjeGE7PHBhdGggZmlsbD0iIzMzMzMzMyIgZD0iTTAgMzEuMDMxNlYxNS41MDI0SDMuNTQyNThWMTcuNDY5OUM0LjQzNjM2IDE1Ljg3NTYgNi4zODI3OCAxNS4wNDUgOC4xMzU4OSAxNS4wNDVDMTAuMTc4IDE1LjA0NSAxMS45NjM2IDE1Ljk3MTMgMTIuNzk0MyAxNy43ODk1QzE0LjAwOTYgMTUuNzQ3NCAxNS44Mjc4IDE1LjA0NSAxNy44MzczIDE1LjA0NUMyMC42NDY5IDE1LjA0NSAyMy4zMjYzIDE2LjgzMjUgMjMuMzI2MyAyMC45NDkzVjMxLjAzMTZIMTkuNzUzMVYyMS41NTQxQzE5Ljc1MzEgMTkuNzM1OSAxOC44MjY4IDE4LjM2MzYgMTYuNzUyMiAxOC4zNjM2QzE0LjgwNTcgMTguMzYzNiAxMy41MjkyIDE5Ljg5NDcgMTMuNTI5MiAyMS44MDg2VjMxLjAyOTdIOS44OTI4MlYyMS41NTQxQzkuODkyODIgMTkuNzY4NCA4Ljk5NTIyIDE4LjM3MzIgNi44ODk5NSAxOC4zNzMyQzQuOTEyOTIgMTguMzczMiAzLjY2Njk5IDE5Ljg0MTIgMy42NjY5OSAyMS44MTgyVjMxLjAzOTJMMCAzMS4wMzE2WiIvPiYjeGE7PHBhdGggZmlsbD0iIzMzMzMzMyIgZD0iTTI3Ljg1NDYgMzEuMDMxNlY3LjkyOTE3SDMxLjU1NzlWMzEuMDMxNkgyNy44NTQ2WiIvPiYjeGE7PHBhdGggZmlsbD0iIzAxOTRFMiIgZD0iTTMwLjA3MDggMzkuNDg3MUMzMC45MDMzIDM5LjcxODcgMzEuNjUxNyAzOS44Njk5IDMzLjI0MDIgMzkuODY5OUMzNi4xOTMzIDM5Ljg2OTkgMzkuNjc2NSAzOC4yMDQ4IDQwLjU5MzMgMzMuNTMxMUw0NC4zNzg5IDE0Ljc5MjNINTAuMDA3Nkw1MC42OTQ3IDExLjY3NDZINDUuMDA4Nkw0NS43NzQxIDcuOTUwMjNDNDYuMzU5OCA1LjA1ODM2IDQ3Ljk1OTggMy41OTIzNCA1MC41MjgyIDMuNTkyMzRDNTEuMTk2MiAzLjU5MjM0IDUxLjAwODYgMy42NDk3NSA1MS42MDM4IDMuNzYyNjdMNTIuNDI2OCAwLjU3MDMyN0M1MS42MzQ0IDAuMzMzMDA2IDUwLjkyNDQgMC4xOTEzNzkgNDkuMzc4IDAuMTkxMzc5QzQ3Ljc0NTQgMC4xNjY4MzEgNDYuMTUxNCAwLjY4ODkzNCA0NC44NDk3IDEuNjc0NjNDNDMuNDA4NiAyLjc4ODUxIDQyLjQ1NzQgNC40MjQ4NyA0Mi4wMjMgNi41Mzc3OUw0MC45NTY5IDExLjY3NDZIMzUuOTIzNEwzNS41MTE5IDE0Ljc5NDNINDAuMzM0OUwzNi44NTkzIDMyLjEyMDZDMzYuNDc2NSAzNC4wODYxIDM1LjM1ODggMzYuNDM2NCAzMi4xNTEyIDM2LjQzNjRDMzEuNDIzOSAzNi40MzY0IDMxLjY4OCAzNi4zODA5IDMxLjAyOTcgMzYuMjczN0wzMC4wNzA4IDM5LjQ4NzFaIi8+JiN4YTs8cGF0aCBmaWxsPSIjNDNDOUVEIiBkPSJNNzEuODA2NyAxNi40NzY2QzY4LjU3NjIgMTQuMjE2MSA2NC4xNzc4IDE0LjY2MDYgNjEuNDY0OSAxNy41MjE2QzU4Ljc1MTkgMjAuMzgyNiA1OC41NDE2IDI0Ljc5ODQgNjAuOTcwMyAyNy45MDQzTDYzLjM5NTIgMjYuMTI0NEM2Mi4xOTE1IDI0LjYzMTIgNjEuOTQ3MSAyMi41ODE1IDYyLjc2NTggMjAuODQ3MUM2My41ODQ1IDE5LjExMjcgNjUuMzIyNCAxNy45OTg3IDY3LjI0MDIgMTcuOTc5TDY3LjE4MjggMTkuODczN0w3MS44MDY3IDE2LjQ3NjZaIi8+JiN4YTs8cGF0aCBmaWxsPSIjMDE5NEUyIiBkPSJNNTMuMzQxNiAzMC45MDUzSDQ5LjY0MDJMNTQuNzEzOSA3LjU5NjE2SDU4LjQxNTNMNTMuMzQxNiAzMC45MDUzWiIvPiYjeGE7PHBhdGggZmlsbD0iIzAxOTRFMiIgZD0iTTczLjYgMTguMjQ1QzczLjUxOTYgMTguMTM0IDczLjQzNTQgMTguMDI0OSA3My4zNDkzIDE3LjkxOTZMNzEuMDE0NCAxOS42NDIxQzcyLjMzMjUgMjEuMTAwOCA3Mi42NzQ1IDIzLjE5NjIgNzEuODg4NSAyNC45OTgzQzcxLjEwMjYgMjYuODAwNCA2OS4zMzQzIDI3Ljk3NTQgNjcuMzY4NCAyOC4wMDE5TDY3LjQyNTggMjYuMTA5MUw2Mi43NTAyIDI5LjU1NDFDNjUuOTU0NSAzMS43MTE4IDcwLjI0NTkgMzEuMjU0NSA3Mi45MjM2IDI4LjQ3MDJDNzUuNjAxNCAyNS42ODU4IDc1Ljg5MDcgMjEuMzc5OCA3My42MDk2IDE4LjI2MjJMNzMuNiAxOC4yNDVaIi8+JiN4YTs8cGF0aCBmaWxsPSIjMDE5NEUyIiBkPSJNNzguMDkxOSAxNS40OTI4SDgyLjEzNTlMODIuOTU4OCAyNi4xMDUzTDg4LjcxNzcgMTUuNDkyOEw5Mi41NTY5IDE1LjU0ODNMOTQuMDY1MSAyNi4xMDUzTDk5LjEzODcgMTUuNDkyOEwxMDIuODQgMTUuNTQ4M0w5NS4xNjE3IDMxLjA0MTJIOTEuNDYwM0w4OS42NzY1IDE5LjkzNDlMODMuNzgxOCAzMS4wNDEySDc5Ljk0MjZMNzguMDkxOSAxNS40OTI4WiIvPiYjeGE7PHBhdGggZmlsbD0iIzAxOTRFMiIgZD0iTTEwNS4wNzIgMTUuNzY4NEgxMDQuMzA2VjE1LjUwMjRIMTA2LjE1MVYxNS43NzQxSDEwNS4zODZWMTguMDE3MkgxMDUuMDcyVjE1Ljc2ODRaIi8+JiN4YTs8cGF0aCBmaWxsPSIjMDE5NEUyIiBkPSJNMTA2LjYxNCAxNS41MDI0SDEwNi45OTdMMTA3LjQ3OSAxNi44NDIxQzEwNy41NDEgMTcuMDE0MyAxMDcuNTk4IDE3LjE5MDQgMTA3LjY1NyAxNy4zNjY1SDEwNy42NzVDMTA3LjczNCAxNy4xOTA0IDEwNy43ODggMTcuMDE0MyAxMDcuODQ3IDE2Ljg0MjFMMTA4LjMyNSAxNS41MDI0SDEwOC43MDhWMTguMDE3MkgxMDguNDFWMTYuNjI5N0MxMDguNDEgMTYuNDA5NiAxMDguNDM0IDE2LjEwNzIgMTA4LjQ1IDE1Ljg4MzJIMTA4LjQzNEwxMDguMjQzIDE2LjQ1NzRMMTA3Ljc2OCAxNy43NjA4SDEwNy41NkwxMDcuMDc5IDE2LjQ1OTNMMTA2Ljg4OCAxNS44ODUySDEwNi44NzNDMTA2Ljg5IDE2LjEwOTEgMTA2LjkxNSAxNi40MTE1IDEwNi45MTUgMTYuNjMxNlYxOC4wMTkxSDEwNi42MjRMMTA2LjYxNCAxNS41MDI0WiIvPiYjeGE7PC9zdmc+;" vertex="1" parent="1">
          <mxGeometry x="171.79" y="221" width="109" height="40" as="geometry" />
        </mxCell>
        <mxCell id="Z6Ugq1CfW-JIsn3a16Bj-15" value="Lambda Function&amp;nbsp;" style="sketch=0;points=[[0,0,0],[0.25,0,0],[0.5,0,0],[0.75,0,0],[1,0,0],[0,1,0],[0.25,1,0],[0.5,1,0],[0.75,1,0],[1,1,0],[0,0.25,0],[0,0.5,0],[0,0.75,0],[1,0.25,0],[1,0.5,0],[1,0.75,0]];outlineConnect=0;fontColor=default;gradientColor=#F78E04;gradientDirection=north;fillColor=#D05C17;strokeColor=#ffffff;dashed=0;verticalLabelPosition=bottom;verticalAlign=top;align=center;html=1;fontSize=12;fontStyle=0;aspect=fixed;shape=mxgraph.aws4.resourceIcon;resIcon=mxgraph.aws4.lambda;" vertex="1" parent="1">
          <mxGeometry x="784" y="332.99999999999994" width="48" height="48" as="geometry" />
        </mxCell>
        <mxCell id="Z6Ugq1CfW-JIsn3a16Bj-45" value="" style="edgeStyle=orthogonalEdgeStyle;rounded=0;orthogonalLoop=1;jettySize=auto;html=1;fontColor=#FFFFFF;startArrow=none;startFill=0;entryX=0.5;entryY=1;entryDx=0;entryDy=0;" edge="1" parent="1" source="Z6Ugq1CfW-JIsn3a16Bj-24" target="Z6Ugq1CfW-JIsn3a16Bj-42">
          <mxGeometry relative="1" as="geometry">
            <mxPoint x="227" y="300" as="targetPoint" />
          </mxGeometry>
        </mxCell>
        <mxCell id="Z6Ugq1CfW-JIsn3a16Bj-53" value="" style="edgeStyle=orthogonalEdgeStyle;rounded=0;orthogonalLoop=1;jettySize=auto;html=1;fontColor=#FFFFFF;startArrow=none;startFill=0;entryX=0.5;entryY=1;entryDx=0;entryDy=0;exitX=0.99;exitY=0.361;exitDx=0;exitDy=0;exitPerimeter=0;" edge="1" parent="1" source="Z6Ugq1CfW-JIsn3a16Bj-24" target="Z6Ugq1CfW-JIsn3a16Bj-49">
          <mxGeometry relative="1" as="geometry">
            <Array as="points">
              <mxPoint x="550" y="442" />
            </Array>
          </mxGeometry>
        </mxCell>
        <mxCell id="Z6Ugq1CfW-JIsn3a16Bj-24" value="" style="sketch=0;html=1;aspect=fixed;strokeColor=none;shadow=0;align=center;verticalAlign=top;fillColor=#3B8DF1;shape=mxgraph.gcp2.arrow_cycle;labelBackgroundColor=none;fontColor=#FFFFFF;" vertex="1" parent="1">
          <mxGeometry x="165" y="402" width="115.79" height="110" as="geometry" />
        </mxCell>
        <mxCell id="Z6Ugq1CfW-JIsn3a16Bj-26" value="" style="group;aspect=fixed;" vertex="1" connectable="0" parent="1">
          <mxGeometry x="184" y="419.65999999999997" width="50" height="50" as="geometry" />
        </mxCell>
        <mxCell id="Z6Ugq1CfW-JIsn3a16Bj-25" value="" style="ellipse;whiteSpace=wrap;html=1;aspect=fixed;labelBackgroundColor=none;fontColor=#FFFFFF;fillColor=#FFFFFF;" vertex="1" parent="Z6Ugq1CfW-JIsn3a16Bj-26">
          <mxGeometry width="50" height="50" as="geometry" />
        </mxCell>
        <mxCell id="Z6Ugq1CfW-JIsn3a16Bj-8" value="" style="shape=image;verticalLabelPosition=bottom;labelBackgroundColor=default;verticalAlign=top;aspect=fixed;imageAspect=0;image=data:image/svg+xml,PHN2ZyB4bWxuczp4bGluaz0iaHR0cDovL3d3dy53My5vcmcvMTk5OS94bGluayIgeG1sbnM9Imh0dHA6Ly93d3cudzMub3JnLzIwMDAvc3ZnIiB2ZXJzaW9uPSIyLjAiIHZpZXdCb3g9IjAgMCA0NCA1MSIgaGVpZ2h0PSI1MSIgd2lkdGg9IjQ0Ij4mI3hhOzx0aXRsZT5Hcm91cC5zdmc8L3RpdGxlPiYjeGE7PGRlc2M+Q3JlYXRlZCB1c2luZyBGaWdtYSAwLjkwPC9kZXNjPiYjeGE7PGcgdHJhbnNmb3JtPSJ0cmFuc2xhdGUoLTE2NDAgLTI0NTMpIiBpZD0iQ2FudmFzIj4mI3hhOzxnIHN0eWxlPSJtaXgtYmxlbmQtbW9kZTpub3JtYWw7IiBpZD0iR3JvdXAiPiYjeGE7PGcgc3R5bGU9Im1peC1ibGVuZC1tb2RlOm5vcm1hbDsiIGlkPSJHcm91cCI+JiN4YTs8ZyBzdHlsZT0ibWl4LWJsZW5kLW1vZGU6bm9ybWFsOyIgaWQ9Ikdyb3VwIj4mI3hhOzxnIHN0eWxlPSJtaXgtYmxlbmQtbW9kZTpub3JtYWw7IiBpZD0iZyI+JiN4YTs8ZyBzdHlsZT0ibWl4LWJsZW5kLW1vZGU6bm9ybWFsOyIgaWQ9InBhdGgiPiYjeGE7PGcgc3R5bGU9Im1peC1ibGVuZC1tb2RlOm5vcm1hbDsiIGlkPSJwYXRoOSBmaWxsIj4mI3hhOzx1c2Ugc3R5bGU9Im1peC1ibGVuZC1tb2RlOm5vcm1hbDsiIGZpbGw9IiM0RTRFNEUiIHRyYW5zZm9ybT0idHJhbnNsYXRlKDE2NDAuNTQgMjQ3NC4zNikiIHhsaW5rOmhyZWY9IiNwYXRoMF9maWxsIi8+JiN4YTs8L2c+JiN4YTs8L2c+JiN4YTs8ZyBzdHlsZT0ibWl4LWJsZW5kLW1vZGU6bm9ybWFsOyIgaWQ9InBhdGgiPiYjeGE7PGcgc3R5bGU9Im1peC1ibGVuZC1tb2RlOm5vcm1hbDsiIGlkPSJwYXRoMTAgZmlsbCI+JiN4YTs8dXNlIHN0eWxlPSJtaXgtYmxlbmQtbW9kZTpub3JtYWw7IiBmaWxsPSIjNEU0RTRFIiB0cmFuc2Zvcm09InRyYW5zbGF0ZSgxNjQ1LjY4IDI0NzQuMzcpIiB4bGluazpocmVmPSIjcGF0aDFfZmlsbCIvPiYjeGE7PC9nPiYjeGE7PC9nPiYjeGE7PGcgc3R5bGU9Im1peC1ibGVuZC1tb2RlOm5vcm1hbDsiIGlkPSJwYXRoIj4mI3hhOzxnIHN0eWxlPSJtaXgtYmxlbmQtbW9kZTpub3JtYWw7IiBpZD0icGF0aDExIGZpbGwiPiYjeGE7PHVzZSBzdHlsZT0ibWl4LWJsZW5kLW1vZGU6bm9ybWFsOyIgZmlsbD0iIzRFNEU0RSIgdHJhbnNmb3JtPSJ0cmFuc2xhdGUoMTY1My4zOSAyNDc0LjI2KSIgeGxpbms6aHJlZj0iI3BhdGgyX2ZpbGwiLz4mI3hhOzwvZz4mI3hhOzwvZz4mI3hhOzxnIHN0eWxlPSJtaXgtYmxlbmQtbW9kZTpub3JtYWw7IiBpZD0icGF0aCI+JiN4YTs8ZyBzdHlsZT0ibWl4LWJsZW5kLW1vZGU6bm9ybWFsOyIgaWQ9InBhdGgxMiBmaWxsIj4mI3hhOzx1c2Ugc3R5bGU9Im1peC1ibGVuZC1tb2RlOm5vcm1hbDsiIGZpbGw9IiM0RTRFNEUiIHRyYW5zZm9ybT0idHJhbnNsYXRlKDE2NjAuNDMgMjQ3NC4zOSkiIHhsaW5rOmhyZWY9IiNwYXRoM19maWxsIi8+JiN4YTs8L2c+JiN4YTs8L2c+JiN4YTs8ZyBzdHlsZT0ibWl4LWJsZW5kLW1vZGU6bm9ybWFsOyIgaWQ9InBhdGgiPiYjeGE7PGcgc3R5bGU9Im1peC1ibGVuZC1tb2RlOm5vcm1hbDsiIGlkPSJwYXRoMTMgZmlsbCI+JiN4YTs8dXNlIHN0eWxlPSJtaXgtYmxlbmQtbW9kZTpub3JtYWw7IiBmaWxsPSIjNEU0RTRFIiB0cmFuc2Zvcm09InRyYW5zbGF0ZSgxNjY3LjU1IDI0NzIuNTQpIiB4bGluazpocmVmPSIjcGF0aDRfZmlsbCIvPiYjeGE7PC9nPiYjeGE7PC9nPiYjeGE7PGcgc3R5bGU9Im1peC1ibGVuZC1tb2RlOm5vcm1hbDsiIGlkPSJwYXRoIj4mI3hhOzxnIHN0eWxlPSJtaXgtYmxlbmQtbW9kZTpub3JtYWw7IiBpZD0icGF0aDE0IGZpbGwiPiYjeGE7PHVzZSBzdHlsZT0ibWl4LWJsZW5kLW1vZGU6bm9ybWFsOyIgZmlsbD0iIzRFNEU0RSIgdHJhbnNmb3JtPSJ0cmFuc2xhdGUoMTY3Mi40NyAyNDc0LjI5KSIgeGxpbms6aHJlZj0iI3BhdGg1X2ZpbGwiLz4mI3hhOzwvZz4mI3hhOzwvZz4mI3hhOzxnIHN0eWxlPSJtaXgtYmxlbmQtbW9kZTpub3JtYWw7IiBpZD0icGF0aCI+JiN4YTs8ZyBzdHlsZT0ibWl4LWJsZW5kLW1vZGU6bm9ybWFsOyIgaWQ9InBhdGgxNSBmaWxsIj4mI3hhOzx1c2Ugc3R5bGU9Im1peC1ibGVuZC1tb2RlOm5vcm1hbDsiIGZpbGw9IiM0RTRFNEUiIHRyYW5zZm9ybT0idHJhbnNsYXRlKDE2NzkuOTggMjQ3NC4yNCkiIHhsaW5rOmhyZWY9IiNwYXRoNl9maWxsIi8+JiN4YTs8L2c+JiN4YTs8L2c+JiN4YTs8L2c+JiN4YTs8L2c+JiN4YTs8ZyBzdHlsZT0ibWl4LWJsZW5kLW1vZGU6bm9ybWFsOyIgaWQ9ImciPiYjeGE7PGcgc3R5bGU9Im1peC1ibGVuZC1tb2RlOm5vcm1hbDsiIGlkPSJwYXRoIj4mI3hhOzxnIHN0eWxlPSJtaXgtYmxlbmQtbW9kZTpub3JtYWw7IiBpZD0icGF0aDE2IGZpbGwiPiYjeGE7PHVzZSBzdHlsZT0ibWl4LWJsZW5kLW1vZGU6bm9ybWFsOyIgZmlsbD0iIzc2NzY3NyIgdHJhbnNmb3JtPSJ0cmFuc2xhdGUoMTY3My40OCAyNDUzLjY5KSIgeGxpbms6aHJlZj0iI3BhdGg3X2ZpbGwiLz4mI3hhOzwvZz4mI3hhOzwvZz4mI3hhOzxnIHN0eWxlPSJtaXgtYmxlbmQtbW9kZTpub3JtYWw7IiBpZD0icGF0aCI+JiN4YTs8ZyBzdHlsZT0ibWl4LWJsZW5kLW1vZGU6bm9ybWFsOyIgaWQ9InBhdGgxNyBmaWxsIj4mI3hhOzx1c2Ugc3R5bGU9Im1peC1ibGVuZC1tb2RlOm5vcm1hbDsiIGZpbGw9IiNGMzc3MjYiIHRyYW5zZm9ybT0idHJhbnNsYXRlKDE2NDMuMjEgMjQ4NC4yNykiIHhsaW5rOmhyZWY9IiNwYXRoOF9maWxsIi8+JiN4YTs8L2c+JiN4YTs8L2c+JiN4YTs8ZyBzdHlsZT0ibWl4LWJsZW5kLW1vZGU6bm9ybWFsOyIgaWQ9InBhdGgiPiYjeGE7PGcgc3R5bGU9Im1peC1ibGVuZC1tb2RlOm5vcm1hbDsiIGlkPSJwYXRoMTggZmlsbCI+JiN4YTs8dXNlIHN0eWxlPSJtaXgtYmxlbmQtbW9kZTpub3JtYWw7IiBmaWxsPSIjRjM3NzI2IiB0cmFuc2Zvcm09InRyYW5zbGF0ZSgxNjQzLjIxIDI0NTcuODgpIiB4bGluazpocmVmPSIjcGF0aDlfZmlsbCIvPiYjeGE7PC9nPiYjeGE7PC9nPiYjeGE7PGcgc3R5bGU9Im1peC1ibGVuZC1tb2RlOm5vcm1hbDsiIGlkPSJwYXRoIj4mI3hhOzxnIHN0eWxlPSJtaXgtYmxlbmQtbW9kZTpub3JtYWw7IiBpZD0icGF0aDE5IGZpbGwiPiYjeGE7PHVzZSBzdHlsZT0ibWl4LWJsZW5kLW1vZGU6bm9ybWFsOyIgZmlsbD0iIzlFOUU5RSIgdHJhbnNmb3JtPSJ0cmFuc2xhdGUoMTY0My4yOCAyNDk2LjA5KSIgeGxpbms6aHJlZj0iI3BhdGgxMF9maWxsIi8+JiN4YTs8L2c+JiN4YTs8L2c+JiN4YTs8ZyBzdHlsZT0ibWl4LWJsZW5kLW1vZGU6bm9ybWFsOyIgaWQ9InBhdGgiPiYjeGE7PGcgc3R5bGU9Im1peC1ibGVuZC1tb2RlOm5vcm1hbDsiIGlkPSJwYXRoMjAgZmlsbCI+JiN4YTs8dXNlIHN0eWxlPSJtaXgtYmxlbmQtbW9kZTpub3JtYWw7IiBmaWxsPSIjNjE2MjYyIiB0cmFuc2Zvcm09InRyYW5zbGF0ZSgxNjQxLjg3IDI0NTguNDMpIiB4bGluazpocmVmPSIjcGF0aDExX2ZpbGwiLz4mI3hhOzwvZz4mI3hhOzwvZz4mI3hhOzwvZz4mI3hhOzwvZz4mI3hhOzwvZz4mI3hhOzwvZz4mI3hhOzxkZWZzPiYjeGE7PHBhdGggZD0iTSAxLjc0NDk4IDUuNDc1MzNDIDEuNzQ0OTggNy4wMzMzNSAxLjYyMDM0IDcuNTQwODIgMS4yOTk4MyA3LjkxNDc0QyAwLjk0MzExOSA4LjIzNTk1IDAuNDgwMDI0IDguNDEzNTggMCA4LjQxMzMxTCAwLjEyNDY0MiA5LjMwMzZDIDAuODY4ODQgOS4zMTM2NiAxLjU5MDk1IDkuMDUwNzggMi4xNTQ1MiA4LjU2NDY2QyAyLjQ1Nzc1IDguMTk0ODcgMi42ODM0IDcuNzY3ODEgMi44MTggNy4zMDg5M0MgMi45NTI2MSA2Ljg1MDA1IDIuOTkzNDEgNi4zNjg3NiAyLjkzNzk4IDUuODkzNzdMIDIuOTM3OTggMEwgMS43NDQ5OCAwTCAxLjc0NDk4IDUuNDM5NzJMIDEuNzQ0OTggNS40NzUzM1oiIGlkPSJwYXRoMF9maWxsIi8+JiN4YTs8cGF0aCBkPSJNIDUuNTAyMDQgNC43NjMwOUMgNS41MDIwNCA1LjQzMDgxIDUuNTAyMDQgNi4wMjczMSA1LjU1NTQ1IDYuNTQzNjhMIDQuNDk2IDYuNTQzNjhMIDQuNDI0NzggNS40ODQyM0MgNC4yMDMxOCA1Ljg1OTA5IDMuODg2MjcgNi4xNjg1OCAzLjUwNjI4IDYuMzgxMjVDIDMuMTI2MjggNi41OTM5MiAyLjY5Njc1IDYuNzAyMTkgMi4yNjEzNSA2LjY5NTAzQyAxLjIyODYxIDYuNjk1MDMgMCA2LjEzNDE1IDAgMy44NDYwOEwgMCAwLjA0NDUxNDlMIDEuMTkzIDAuMDQ0NTE0OUwgMS4xOTMgMy42MDU3QyAxLjE5MyA0Ljg0MzIyIDEuNTc1ODMgNS42NzExOSAyLjY1MzA5IDUuNjcxMTlDIDIuODc0NzIgNS42NzM1OCAzLjA5NDU5IDUuNjMxNjggMy4yOTk4MiA1LjU0Nzk2QyAzLjUwNTA1IDUuNDY0MjQgMy42OTE0OSA1LjM0MDM5IDMuODQ4MjIgNS4xODM2NkMgNC4wMDQ5NCA1LjAyNjk0IDQuMTI4OCA0Ljg0MDQ5IDQuMjEyNTIgNC42MzUyN0MgNC4yOTYyMyA0LjQzMDA0IDQuMzM4MTMgNC4yMTAxNiA0LjMzNTc1IDMuOTg4NTNMIDQuMzM1NzUgMEwgNS41Mjg3NCAwTCA1LjUyODc0IDQuNzI3NDhMIDUuNTAyMDQgNC43NjMwOVoiIGlkPSJwYXRoMV9maWxsIi8+JiN4YTs8cGF0aCBkPSJNIDAuMDUzNDE3OCAyLjI3MjY0QyAwLjA1MzQxNzggMS40NDQ2NiAwLjA1MzQxNzggMC43NjgwMzYgMCAwLjE1MzczMUwgMS4wNjgzNiAwLjE1MzczMUwgMS4xMjE3NyAxLjI2NjZDIDEuMzU5OCAwLjg2NDUzNSAxLjcwMjQ3IDAuNTM0NTk0IDIuMTEzMjUgMC4zMTE5NTRDIDIuNTI0MDQgMC4wODkzMTQ1IDIuOTg3NTQgLTAuMDE3Njc4NiAzLjQ1NDM1IDAuMDAyMzgwOTVDIDUuMDM5MDggMC4wMDIzODA5NSA2LjIzMjA4IDEuMzI4OTIgNi4yMzIwOCAzLjMwNTM4QyA2LjIzMjA4IDUuNjM3OTYgNC43OTg3IDYuNzk1MzUgMy4yNDk1OCA2Ljc5NTM1QyAyLjg1MzA5IDYuODEzMDQgMi40NTg3NCA2LjcyODEgMi4xMDQ2OSA2LjU0ODc0QyAxLjc1MDY0IDYuMzY5MzcgMS40NDg4OCA2LjEwMTY2IDEuMjI4NjEgNS43NzE1MUwgMS4yMjg2MSA1Ljc3MTUxTCAxLjIyODYxIDkuMzMyNjlMIDAuMDUzNDE3OCA5LjMzMjY5TCAwLjA1MzQxNzggMi4yOTkzNUwgMC4wNTM0MTc4IDIuMjcyNjRaTSAxLjIyODYxIDQuMDA4NzJDIDEuMjMxODQgNC4xNzAyNiAxLjI0OTcyIDQuMzMxMTcgMS4yODIwMyA0LjQ4OTQ4QyAxLjM4MzA0IDQuODg0NzkgMS42MTI5OSA1LjIzNTEzIDEuOTM1NDggNS40ODUwNkMgMi4yNTc5OCA1LjczNSAyLjY1NDYxIDUuODcwMjYgMy4wNjI2MiA1Ljg2OTQ0QyA0LjMxNzk0IDUuODY5NDQgNS4wNTY4OSA0Ljg0NTYgNS4wNTY4OSAzLjM1ODhDIDUuMDU2ODkgMi4wNTg5NyA0LjM2MjQ2IDAuOTQ2MDk2IDMuMTA3MTQgMC45NDYwOTZDIDIuNjEwMzYgMC45ODY3NzcgMi4xNDU0OCAxLjIwNzI2IDEuNzk5NjUgMS41NjYyQyAxLjQ1MzgyIDEuOTI1MTQgMS4yNTA3OSAyLjM5NzkgMS4yMjg2MSAyLjg5NTg1TCAxLjIyODYxIDQuMDA4NzJaIiBpZD0icGF0aDJfZmlsbCIvPiYjeGE7PHBhdGggZD0iTSAxLjMxNzY0IDAuMDE3ODA1OUwgMi43NTEwMiAzLjg1NDk5QyAyLjkwMjM3IDQuMjgyMzMgMy4wNjI2MiA0Ljc5ODcgMy4xNjk0NiA1LjE4MTUzQyAzLjI5NDEgNC43ODk4IDMuNDI3NjQgNC4yOTEyMyAzLjU4NzkgMy44MjgyOEwgNC44ODc3MyAwLjAxNzgwNTlMIDYuMTQzMDUgMC4wMTc4MDU5TCA0LjM2MjQ2IDQuNjQ3MzVDIDMuNDcyMTYgNi44NzMwOSAyLjkyOTA4IDguMDIxNTggMi4xMSA4LjcxNjAxQyAxLjY5NzQ1IDkuMDkyODMgMS4xOTQ0OCA5LjM1NjU4IDAuNjQ5OTE3IDkuNDgxNjZMIDAuMzU2MTE5IDguNDg0NTNDIDAuNzM2ODg2IDguMzU5NDIgMS4wOTAzOCA4LjE2MzA0IDEuMzk3NzcgNy45MDU4NEMgMS44MzIxIDcuNTUxODggMi4xNzY3OCA3LjEwMDQ0IDIuNDAzOCA2LjU4ODJDIDIuNDUyMzkgNi40OTk0OSAyLjQ4NTUxIDYuNDAzMTQgMi41MDE3MyA2LjMwMzNDIDIuNDkxNjEgNi4xOTU4NiAyLjQ2NDU3IDYuMDkwNyAyLjQyMTYxIDUuOTkxN0wgMCAwTCAxLjI5OTgzIDBMIDEuMzE3NjQgMC4wMTc4MDU5WiIgaWQ9InBhdGgzX2ZpbGwiLz4mI3hhOzxwYXRoIGQ9Ik0gMi4xOTAxMyAwTCAyLjE5MDEzIDEuODY5NjJMIDMuODk5NSAxLjg2OTYyTCAzLjg5OTUgMi43NTk5MkwgMi4xOTAxMyAyLjc1OTkyTCAyLjE5MDEzIDYuMjY3NjlDIDIuMTkwMTMgNy4wNjg5NiAyLjQyMTYxIDcuNTMxOTEgMy4wODA0MyA3LjUzMTkxQyAzLjMxNDQyIDcuNTM1NzQgMy41NDc4OSA3LjUwODggMy43NzQ4NiA3LjQ1MTc5TCAzLjgyODI4IDguMzQyMDhDIDMuNDg3OTQgOC40NTk5OSAzLjEyODgxIDguNTE0MzEgMi43Njg4MiA4LjUwMjM0QyAyLjUzMDQyIDguNTE3MjYgMi4yOTE2MSA4LjQ4MDQzIDIuMDY4NzggOC4zOTQzN0MgMS44NDU5NSA4LjMwODMxIDEuNjQ0MzggOC4xNzUwNiAxLjQ3Nzg5IDguMDAzNzdDIDEuMTE1MjUgNy41MTg3MyAwLjk0OTgyNiA2LjkxNDMxIDEuMDE0OTQgNi4zMTIyMUwgMS4wMTQ5NCAyLjc1MTAyTCAwIDIuNzUxMDJMIDAgMS44NjA3MkwgMS4wMzI3NCAxLjg2MDcyTCAxLjAzMjc0IDAuMjc1OTkyTCAyLjE5MDEzIDBaIiBpZD0icGF0aDRfZmlsbCIvPiYjeGE7PHBhdGggZD0iTSAxLjE3NzE2IDMuNTc4OTlDIDEuMTUzIDMuODgwOTMgMS4xOTQ2OCA0LjE4NDUxIDEuMjk5MzMgNC40Njg3NkMgMS40MDM5OCA0Ljc1MzAxIDEuNTY5MSA1LjAxMTE0IDEuNzgzMjkgNS4yMjUzMkMgMS45OTc0NyA1LjQzOTUxIDIuMjU1NiA1LjYwNDYzIDIuNTM5ODUgNS43MDkyOEMgMi44MjQxIDUuODEzOTMgMy4xMjc2OCA1Ljg1NTYxIDMuNDI5NjIgNS44MzE0NUMgNC4wNDAzMyA1Ljg0NTExIDQuNjQ3MDYgNS43Mjk4MyA1LjIxMDIxIDUuNDkzMTNMIDUuNDE0OTggNi4zODM0M0MgNC43MjM5MyA2LjY2ODA5IDMuOTgwODUgNi44MDQ1OCAzLjIzMzc1IDYuNzg0MDZDIDIuNzk4MjEgNi44MTM4OCAyLjM2MTM4IDYuNzQ5MTQgMS45NTMyMiA2LjU5NDI3QyAxLjU0NTA1IDYuNDM5NDEgMS4xNzUyMiA2LjE5ODA5IDAuODY5MDcxIDUuODg2ODhDIDAuNTYyOTI4IDUuNTc1NjYgMC4zMjc3MjMgNS4yMDE5IDAuMTc5NTkxIDQuNzkxMjVDIDAuMDMxNDU4NCA0LjM4MDU5IC0wLjAyNjA5NjIgMy45NDI3NiAwLjAxMDg3NDggMy41MDc3N0MgMC4wMTA4NzQ4IDEuNTQ5MTIgMS4xNzcxNiAwIDMuMDgyNCAwQyA1LjIxOTExIDAgNS43NTMyOSAxLjg2OTYyIDUuNzUzMjkgMy4wNjI2MkMgNS43NjQ3MSAzLjI0NjQ0IDUuNzY0NzEgMy40MzA3OSA1Ljc1MzI5IDMuNjE0NjFMIDEuMTUwNDYgMy42MTQ2MUwgMS4xNzcxNiAzLjU3ODk5Wk0gNC42NjcxMyAyLjY4ODdDIDQuNzAxNDkgMi40NTA2NyA0LjY4NDQzIDIuMjA4MDUgNC42MTcwOSAxLjk3NzE4QyA0LjU0OTc2IDEuNzQ2MzEgNC40MzM3MiAxLjUzMjU1IDQuMjc2OCAxLjM1MDMxQyA0LjExOTg3IDEuMTY4MDggMy45MjU3MSAxLjAyMTYgMy43MDczOSAwLjkyMDc0NEMgMy40ODkwNyAwLjgxOTg5IDMuMjUxNjYgMC43NjcwMDYgMy4wMTExOCAwLjc2NTY1NkMgMi41MjIwMSAwLjgwMTA2NCAyLjA2MzcxIDEuMDE3ODggMS43MjYwOSAxLjM3MzYyQyAxLjM4ODQ3IDEuNzI5MzUgMS4xOTU4OCAyLjE5ODM1IDEuMTg2MDcgMi42ODg3TCA0LjY2NzEzIDIuNjg4N1oiIGlkPSJwYXRoNV9maWxsIi8+JiN4YTs8cGF0aCBkPSJNIDAuMDUzNDE3OCAyLjE5MjI4QyAwLjA1MzQxNzggMS40MjY2MyAwLjA1MzQxNzggMC43Njc4MDYgMCAwLjE2MjQwNEwgMS4wNjgzNiAwLjE2MjQwNEwgMS4wNjgzNiAxLjQzNTUzTCAxLjEyMTc3IDEuNDM1NTNDIDEuMjMzOTEgMS4wNDI1OSAxLjQ2NTYgMC42OTQzMTQgMS43ODQ2OCAwLjQzOTA0OUMgMi4xMDM3NiAwLjE4Mzc4MyAyLjQ5NDQgMC4wMzQxOTYgMi45MDIzNyAwLjAxMTA1MzhDIDMuMDE0NjYgLTAuMDAzNjg0NTkgMy4xMjgzOSAtMC4wMDM2ODQ1OSAzLjI0MDY4IDAuMDExMDUzOEwgMy4yNDA2OCAxLjEyMzkzQyAzLjEwNDYyIDEuMTA4MTcgMi45NjcyIDEuMTA4MTcgMi44MzExNCAxLjEyMzkzQyAyLjQyNyAxLjEzOTU4IDIuMDQyMzcgMS4zMDE4MiAxLjc0OTEgMS41ODAzNUMgMS40NTU4MyAxLjg1ODg3IDEuMjczOTggMi4yMzQ2MiAxLjIzNzUxIDIuNjM3NDNDIDEuMjA0MjIgMi44MTk2IDEuMTg2MzUgMy4wMDQyNSAxLjE4NDEgMy4xODk0MUwgMS4xODQxIDYuNjUyNjdMIDAuMDA4OTAyOTcgNi42NTI2N0wgMC4wMDg5MDI5NyAyLjIwMTE4TCAwLjA1MzQxNzggMi4xOTIyOFoiIGlkPSJwYXRoNl9maWxsIi8+JiN4YTs8cGF0aCBkPSJNIDYuMDMwNTkgMi44MzU2NUMgNi4wNjcxNSAzLjQzMzc2IDUuOTI0ODUgNC4wMjkyMSA1LjYyMTggNC41NDYxNUMgNS4zMTg3NSA1LjA2MzEgNC44Njg2OSA1LjQ3ODEzIDQuMzI4OTMgNS43MzgzOUMgMy43ODkxNyA1Ljk5ODY0IDMuMTg0MTYgNi4wOTIzMyAyLjU5MDk3IDYuMDA3NTNDIDEuOTk3NzggNS45MjI3MiAxLjQ0MzI2IDUuNjYzMjYgMC45OTgwNDggNS4yNjIxOUMgMC41NTI4MzcgNC44NjExMyAwLjIzNzA5IDQuMzM2NjEgMC4wOTEwMzA3IDMuNzU1NDZDIC0wLjA1NTAyODcgMy4xNzQzMSAtMC4wMjQ3ODkxIDIuNTYyODMgMC4xNzc4OTcgMS45OTg5M0MgMC4zODA1ODMgMS40MzUwMyAwLjc0NjU0MSAwLjk0NDIyMSAxLjIyOTE1IDAuNTg5MDM3QyAxLjcxMTc2IDAuMjMzODUzIDIuMjg5MTggMC4wMzAzNjg2IDIuODg3ODQgMC4wMDQ1MDU0M0MgMy4yODAzNSAtMC4wMTcwOTMyIDMuNjczMjYgMC4wMzkxMTQ0IDQuMDQzOTYgMC4xNjk4OTZDIDQuNDE0NjcgMC4zMDA2NzcgNC43NTU4NyAwLjUwMzQ1MyA1LjA0Nzk0IDAuNzY2NTYxQyA1LjM0IDEuMDI5NjcgNS41NzcxOCAxLjM0NzkyIDUuNzQ1ODIgMS43MDMwMUMgNS45MTQ0NiAyLjA1ODEgNi4wMTEyNCAyLjQ0MzAzIDYuMDMwNTkgMi44MzU2NUwgNi4wMzA1OSAyLjgzNTY1WiIgaWQ9InBhdGg3X2ZpbGwiLz4mI3hhOzxwYXRoIGQ9Ik0gMTguNjk2MiA3LjEyMjM4QyAxMC42ODM2IDcuMTIyMzggMy42NDEzMSA0LjI0NjcyIDAgMEMgMS40MTI4NCAzLjgyMDQxIDMuOTYyMTUgNy4xMTYzIDcuMzA0NzkgOS40NDQwNEMgMTAuNjQ3NCAxMS43NzE4IDE0LjYyMyAxMy4wMTk2IDE4LjY5NjIgMTMuMDE5NkMgMjIuNzY5NSAxMy4wMTk2IDI2Ljc0NSAxMS43NzE4IDMwLjA4NzcgOS40NDQwNEMgMzMuNDMwMyA3LjExNjMgMzUuOTc5NiAzLjgyMDQxIDM3LjM5MjUgNC4wNDg2ZS0xM0MgMzMuNzYwMSA0LjI0NjcyIDI2Ljc0NDUgNy4xMjIzOCAxOC42OTYyIDcuMTIyMzhaIiBpZD0icGF0aDhfZmlsbCIvPiYjeGE7PHBhdGggZD0iTSAxOC42OTYyIDUuODk3MjVDIDI2LjcwODkgNS44OTcyNSAzMy43NTEyIDguNzcyOTEgMzcuMzkyNSAxMy4wMTk2QyAzNS45Nzk2IDkuMTk5MjIgMzMuNDMwMyA1LjkwMzMzIDMwLjA4NzcgMy41NzU1OUMgMjYuNzQ1IDEuMjQ3ODUgMjIuNzY5NSA0LjA0ODZlLTEzIDE4LjY5NjIgMEMgMTQuNjIzIDQuMDQ4NmUtMTMgMTAuNjQ3NCAxLjI0Nzg1IDcuMzA0NzkgMy41NzU1OUMgMy45NjIxNSA1LjkwMzMzIDEuNDEyODQgOS4xOTkyMiAwIDEzLjAxOTZDIDMuNjQxMzEgOC43NjQwMSAxMC42NDggNS44OTcyNSAxOC42OTYyIDUuODk3MjVaIiBpZD0icGF0aDlfZmlsbCIvPiYjeGE7PHBhdGggZD0iTSA3LjU5NTc2IDMuNTY2NTZDIDcuNjQyNzYgNC4zMTk5MiA3LjQ2NDQyIDUuMDcwMjIgNy4wODM0NyA1LjcyMTg2QyA2LjcwMjUxIDYuMzczNSA2LjEzNjE5IDYuODk2OTggNS40NTY2NiA3LjIyNTYxQyA0Ljc3NzEzIDcuNTU0MjQgNC4wMTUxNSA3LjY3MzE0IDMuMjY3ODEgNy41NjcxNkMgMi41MjA0NiA3LjQ2MTE3IDEuODIxNTggNy4xMzUxMSAxLjI2MDIxIDYuNjMwNTFDIDAuNjk4ODM5IDYuMTI1OTEgMC4zMDAzOTQgNS40NjU2MSAwLjExNTYzNyA0LjczMzc1QyAtMC4wNjkxMTkxIDQuMDAxODggLTAuMDMxODIxOSAzLjIzMTU5IDAuMjIyNzc3IDIuNTIwOTlDIDAuNDc3Mzc2IDEuODEwNCAwLjkzNzc1IDEuMTkxNjkgMS41NDUyNCAwLjc0MzY4NUMgMi4xNTI3NCAwLjI5NTY3OCAyLjg3OTg1IDAuMDM4NjU5NSAzLjYzMzk0IDAuMDA1Mzc1ODlDIDQuMTI3OTMgLTAuMDIxMDQ3MSA0LjYyMjI5IDAuMDUwMTE3MyA1LjA4ODc4IDAuMjE0ODAzQyA1LjU1NTI2IDAuMzc5NDkgNS45ODQ3MyAwLjYzNDQ3IDYuMzUyNjQgMC45NjUxNzlDIDYuNzIwNTUgMS4yOTU4OSA3LjAxOTcxIDEuNjk1ODQgNy4yMzMgMi4xNDIyQyA3LjQ0NjMgMi41ODg1NSA3LjU2OTU3IDMuMDcyNTYgNy41OTU3NiAzLjU2NjU2TCA3LjU5NTc2IDMuNTY2NTZaIiBpZD0icGF0aDEwX2ZpbGwiLz4mI3hhOzxwYXRoIGQ9Ik0gMi4yNTA2MSA0LjM3OTQzQyAxLjgxODg2IDQuMzkxMzUgMS4zOTMyMiA0LjI3NTM1IDEuMDI3MjIgNC4wNDYwMkMgMC42NjEyMjQgMy44MTY2OCAwLjM3MTIwNiAzLjQ4NDI0IDAuMTkzNjQxIDMuMDkwNTJDIDAuMDE2MDc2MiAyLjY5Njc5IC0wLjA0MTEwNzggMi4yNTkzNSAwLjAyOTI4MDQgMS44MzMyMUMgMC4wOTk2Njg2IDEuNDA3MDcgMC4yOTQ0ODYgMS4wMTEyNSAwLjU4OTIzMyAwLjY5NTU0MkMgMC44ODM5ODEgMC4zNzk4MyAxLjI2NTUgMC4xNTgzMTYgMS42ODU4MSAwLjA1ODg1NzdDIDIuMTA2MTEgLTAuMDQwNjAwNSAyLjU0NjQ0IC0wLjAxMzU2MjIgMi45NTE0MyAwLjEzNjU3MkMgMy4zNTY0MSAwLjI4NjcwNyAzLjcwNzk2IDAuNTUzMjM0IDMuOTYxODYgMC45MDI2MzZDIDQuMjE1NzcgMS4yNTIwNCA0LjM2MDcgMS42Njg3MiA0LjM3ODQyIDIuMTAwMjdDIDQuMzk1MjkgMi42ODM4IDQuMTgxMzEgMy4yNTA0NCAzLjc4MjkzIDMuNjc3MTVDIDMuMzg0NTUgNC4xMDM4NyAyLjgzMzkyIDQuMzU2MjMgMi4yNTA2MSA0LjM3OTQzWiIgaWQ9InBhdGgxMV9maWxsIi8+JiN4YTs8L2RlZnM+JiN4YTs8L3N2Zz4=;" vertex="1" parent="Z6Ugq1CfW-JIsn3a16Bj-26">
          <mxGeometry x="6.746153846153847" y="5.000000000000001" width="36.50000000000001" height="42.307692307692314" as="geometry" />
        </mxCell>
        <mxCell id="Z6Ugq1CfW-JIsn3a16Bj-30" value="" style="group;aspect=fixed;" vertex="1" connectable="0" parent="1">
          <mxGeometry x="220" y="422.35" width="50" height="47.31" as="geometry" />
        </mxCell>
        <mxCell id="Z6Ugq1CfW-JIsn3a16Bj-27" value="" style="group" vertex="1" connectable="0" parent="Z6Ugq1CfW-JIsn3a16Bj-30">
          <mxGeometry width="50" height="46.86367924528303" as="geometry" />
        </mxCell>
        <mxCell id="Z6Ugq1CfW-JIsn3a16Bj-28" value="" style="ellipse;whiteSpace=wrap;html=1;aspect=fixed;labelBackgroundColor=none;fontColor=#FFFFFF;fillColor=#FFFFFF;" vertex="1" parent="Z6Ugq1CfW-JIsn3a16Bj-27">
          <mxGeometry width="46.86367924528303" height="46.86367924528303" as="geometry" />
        </mxCell>
        <mxCell id="Z6Ugq1CfW-JIsn3a16Bj-13" value="" style="shape=image;verticalLabelPosition=bottom;labelBackgroundColor=default;verticalAlign=top;aspect=fixed;imageAspect=0;image=data:image/svg+xml,PHN2ZyB4bWxucz0iaHR0cDovL3d3dy53My5vcmcvMjAwMC9zdmciIGhlaWdodD0iNDhweCIgd2lkdGg9IjQ4cHgiIHZpZXdCb3g9IjAgMCA0OCA0OCI+PHBhdGggZD0iTTI0LjA0Nyw1Yy0xLjU1NSwwLjAwNS0yLjYzMywwLjE0Mi0zLjkzNiwwLjM2N2MtMy44NDgsMC42Ny00LjU0OSwyLjA3Ny00LjU0OSw0LjY3VjE0aDl2MkgxNS4yMmgtNC4zNWMtMi42MzYsMC00Ljk0MywxLjI0Mi01LjY3NCw0LjIxOWMtMC44MjYsMy40MTctMC44NjMsNS41NTcsMCw5LjEyNUM1Ljg1MSwzMi4wMDUsNy4yOTQsMzQsOS45MzEsMzRoMy42MzJ2LTUuMTA0YzAtMi45NjYsMi42ODYtNS44OTYsNS43NjQtNS44OTZoNy4yMzZjMi41MjMsMCw1LTEuODYyLDUtNC4zNzd2LTguNTg2YzAtMi40MzktMS43NTktNC4yNjMtNC4yMTgtNC42NzJDMjcuNDA2LDUuMzU5LDI1LjU4OSw0Ljk5NCwyNC4wNDcsNXogTTE5LjA2Myw5YzAuODIxLDAsMS41LDAuNjc3LDEuNSwxLjUwMmMwLDAuODMzLTAuNjc5LDEuNDk4LTEuNSwxLjQ5OGMtMC44MzcsMC0xLjUtMC42NjQtMS41LTEuNDk4QzE3LjU2Myw5LjY4LDE4LjIyNiw5LDE5LjA2Myw5eiIgZmlsbD0iIzAyNzdCRCIvPjxwYXRoIGQ9Ik0yMy4wNzgsNDNjMS41NTUtMC4wMDUsMi42MzMtMC4xNDIsMy45MzYtMC4zNjdjMy44NDgtMC42Nyw0LjU0OS0yLjA3Nyw0LjU0OS00LjY3VjM0aC05di0yaDkuMzQzaDQuMzVjMi42MzYsMCw0Ljk0My0xLjI0Miw1LjY3NC00LjIxOWMwLjgyNi0zLjQxNywwLjg2My01LjU1NywwLTkuMTI1QzQxLjI3NCwxNS45OTUsMzkuODMxLDE0LDM3LjE5NCwxNGgtMy42MzJ2NS4xMDRjMCwyLjk2Ni0yLjY4Niw1Ljg5Ni01Ljc2NCw1Ljg5NmgtNy4yMzZjLTIuNTIzLDAtNSwxLjg2Mi01LDQuMzc3djguNTg2YzAsMi40MzksMS43NTksNC4yNjMsNC4yMTgsNC42NzJDMTkuNzE5LDQyLjY0MSwyMS41MzYsNDMuMDA2LDIzLjA3OCw0M3ogTTI4LjA2MywzOWMtMC44MjEsMC0xLjUtMC42NzctMS41LTEuNTAyYzAtMC44MzMsMC42NzktMS40OTgsMS41LTEuNDk4YzAuODM3LDAsMS41LDAuNjY0LDEuNSwxLjQ5OEMyOS41NjMsMzguMzIsMjguODk5LDM5LDI4LjA2MywzOXoiIGZpbGw9IiNGRkMxMDciLz48L3N2Zz4=;" vertex="1" parent="Z6Ugq1CfW-JIsn3a16Bj-30">
          <mxGeometry x="3.5714285714285716" y="4.016886792452831" width="42.8467924528302" height="42.8467924528302" as="geometry" />
        </mxCell>
        <mxCell id="Z6Ugq1CfW-JIsn3a16Bj-35" value="" style="group" vertex="1" connectable="0" parent="1">
          <mxGeometry x="137.9" y="540" width="170" height="80" as="geometry" />
        </mxCell>
        <mxCell id="Z6Ugq1CfW-JIsn3a16Bj-33" value="" style="rounded=1;whiteSpace=wrap;html=1;labelBackgroundColor=none;fontColor=#FFFFFF;" vertex="1" parent="Z6Ugq1CfW-JIsn3a16Bj-35">
          <mxGeometry width="170" height="80" as="geometry" />
        </mxCell>
        <mxCell id="Z6Ugq1CfW-JIsn3a16Bj-3" value="Data Versioning" style="shape=image;verticalLabelPosition=bottom;labelBackgroundColor=default;verticalAlign=top;aspect=fixed;imageAspect=0;image=data:image/svg+xml,PHN2ZyB4bWxucz0iaHR0cDovL3d3dy53My5vcmcvMjAwMC9zdmciIGZpbGw9Im5vbmUiIHZpZXdCb3g9IjAgMCAxNjAgMTYwIiBoZWlnaHQ9IjE2MCIgd2lkdGg9IjE2MCI+PHBhdGggZmlsbD0idXJsKCNwYWludDBfbGluZWFyKSIgZD0iTTEwNC40OTMgMTA0LjY3M2MtNy40MS03LjMzMy0xMC44NDItMTYuMjIxLTEwLjg0Mi0yNi43MDMgMC0xMC41NDIgMy40MTMtMTkuNDcgMTAuODQyLTI2Ljg2M2EzNy4yNzIgMzcuMjcyIDAgMCAxIDEyLjQxMS04LjM1NiAzNi42MTIgMzYuNjEyIDAgMCAxIDE0LjYxNi0yLjc0NGM5LjQzNC0uMTU4IDE4LjU3OCAzLjMyOSAyNS42MDQgOS43NjQgMS4wNzMuOTk3IDEuMDkyIDEuOTkzLjExNyAyLjk1bC04LjI0OSA4LjUwOWMtLjkxNi44MzctMS44MTMuODM3LTIuNjUyIDAtMy45NDctMy41NC05LjA0Mi01LjQ1LTE0LjI5My01LjM2LTUuOTI4IDAtMTAuODYyIDIuMTEyLTE0LjgyIDYuMzc2YTIxLjE1MSAyMS4xNTEgMCAwIDAtNC4zMjggNy4wNDIgMjEuNDk3IDIxLjQ5NyAwIDAgMC0xLjMyNyA4LjIwM2MwIDUuODk5IDEuNzU1IDEwLjkyIDUuNzMzIDE1LjA4NmExOS45MiAxOS45MiAwIDAgMCA2Ljc4NyA0LjcxNiAxOS41NTQgMTkuNTU0IDAgMCAwIDguMDcyIDEuNTIxYzUuMTY1LjEyIDEwLjE5OS0xLjY3IDE0LjE3Ni01LjA0MS45NzUtLjgzNyAxLjg5Mi0uNzk4IDIuNzMuMWw4LjI2OSA4LjcyOGMuOTE2LjkxNi44NzcgMS44NTMtLjA5OCAyLjgyOS02LjkyIDYuNzM1LTE2LjE2NyAxMC4zOTYtMjUuNzIxIDEwLjE4NGEzNi44NzQgMzYuODc0IDAgMCAxLTE0LjU5My0yLjcwMSAzNy41MTggMzcuNTE4IDAgMCAxLTEyLjQzNC04LjI2di4wMnoiLz48cGF0aCBmaWxsPSJ1cmwoI3BhaW50MV9saW5lYXIpIiBkPSJNMi4wMDEgMTEzLjQyMlY0Mi4wNzlhMS45NSAxLjk1IDAgMCAxIC4xNC0uNzkxYy4xLS4yNTEuMjUyLS40NzcuNDQ1LS42NjNhMS43MiAxLjcyIDAgMCAxIC41OS0uNDQ1Yy4yMjUtLjEwMy40Ny0uMTU2LjcxNy0uMTUzaDI1LjQ4NmMxMC40NTIuNzk3IDE4LjI1MiAzLjc4NiAyNS40MjggMTEuMTZDNjIuMDIyIDU4LjU2IDY0Ljg5IDY2LjkzIDY1LjgwNSA3Ny42OWMuODc4IDEwLjM2Mi0zLjM1NCAxOS4zMy0xMC41MyAyNi43MDNhMzUuMTg1IDM1LjE4NSAwIDAgMS0xMS44MTUgOC4zMTQgMzQuNTE5IDM0LjUxOSAwIDAgMS0xNC4wOCAyLjgwNkgzLjg5MmExLjczMyAxLjczMyAwIDAgMS0uNzE1LS4xNTggMS43NzggMS43NzggMCAwIDEtLjU5Mi0uNDQgMS45OSAxLjk5IDAgMCAxLS41ODUtMS40NzV2LS4wMTl6bTE2LjMwMi01NC4wMDV2NDAuMTE1aDEwLjAyM2M1Ljg1IDAgMTAuNzI1LTIuMTEzIDE0LjU4Ni02LjMxNyAzLjg2MS00LjE5OCA1Ljk0My05Ljc4NSA1Ljc5Mi0xNS41NDQgMC02LjExOC0xLjk1LTExLjI4LTUuNzkyLTE1LjQ4NGExOS4xNzYgMTkuMTc2IDAgMCAwLTYuNjI0LTQuNzcgMTguODEgMTguODEgMCAwIDAtNy45NjItMS41NDdIMTguMzAzdjMuNTQ3eiIvPjxwYXRoIGZpbGw9InVybCgjcGFpbnQyX2xpbmVhcikiIGQ9Ik05NS42OTkgNjQuOTc2bC0xNS43OTUgMzUuNDcyaC0uNjQ0TDYyLjM5MyA2Mi41MDVjMS45MSA0LjU0NCAyLjkyNSA5LjUyNiAzLjQxMiAxNS4xNjYuNjQ0IDcuNTcyLTEuNDQzIDE0LjM4OC01LjQwMSAyMC40MDZsMTYuNzcgMzYuNzI3Yy40MjkuNzk3IDEuMDE0IDEuMTk2IDEuNzk0IDEuMTk2aDEuMDUzYy43OCAwIDEuMzY1LS4zNzkgMS43NzQtMS4xNzZsMTcuMDgyLTM3LjE2NmEzNi44MzUgMzYuODM1IDAgMCAxLTUuMjI2LTE5LjcwOGMwLTQuNjI0LjY2My04Ljk2OCAyLjA0OC0xMi45NzR6Ii8+PGRlZnM+PGxpbmVhckdyYWRpZW50IGdyYWRpZW50VW5pdHM9InVzZXJTcGFjZU9uVXNlIiB5Mj0iMTE1LjYyMiIgeDI9IjEyNS44MjYiIHkxPSI3Ny44NjMiIHgxPSIxMjUuODI2IiBpZD0icGFpbnQwX2xpbmVhciI+PHN0b3Agc3RvcC1jb2xvcj0iI0Y0NjgzNyIvPjxzdG9wIHN0b3AtY29sb3I9IiNERDUyMzYiIG9mZnNldD0iMSIvPjwvbGluZWFyR3JhZGllbnQ+PGxpbmVhckdyYWRpZW50IGdyYWRpZW50VW5pdHM9InVzZXJTcGFjZU9uVXNlIiB5Mj0iMTE1LjUxNyIgeDI9IjMzLjk2IiB5MT0iNzcuODYzIiB4MT0iMzMuOTYiIGlkPSJwYWludDFfbGluZWFyIj48c3RvcCBzdG9wLWNvbG9yPSIjMTNBREM3Ii8+PHN0b3Agc3RvcC1jb2xvcj0iIzE0OTdCOCIgb2Zmc2V0PSIxIi8+PC9saW5lYXJHcmFkaWVudD48bGluZWFyR3JhZGllbnQgZ3JhZGllbnRVbml0cz0idXNlclNwYWNlT25Vc2UiIHkyPSIxMzUuNjU0IiB4Mj0iNjUuMzc1IiB5MT0iOTkuNzg0IiB4MT0iNjUuMzc1IiBpZD0icGFpbnQyX2xpbmVhciI+PHN0b3Agc3RvcC1jb2xvcj0iIzdFNTFDMiIvPjxzdG9wIHN0b3AtY29sb3I9IiM5NDVERDYiIG9mZnNldD0iMSIvPjwvbGluZWFyR3JhZGllbnQ+PC9kZWZzPjwvc3ZnPg==;" vertex="1" parent="Z6Ugq1CfW-JIsn3a16Bj-35">
          <mxGeometry x="32.1" y="10" width="38" height="38" as="geometry" />
        </mxCell>
        <mxCell id="Z6Ugq1CfW-JIsn3a16Bj-64" value="S3 Bucket" style="sketch=0;points=[[0,0,0],[0.25,0,0],[0.5,0,0],[0.75,0,0],[1,0,0],[0,1,0],[0.25,1,0],[0.5,1,0],[0.75,1,0],[1,1,0],[0,0.25,0],[0,0.5,0],[0,0.75,0],[1,0.25,0],[1,0.5,0],[1,0.75,0]];outlineConnect=0;fontColor=default;gradientColor=#60A337;gradientDirection=north;fillColor=#277116;strokeColor=#ffffff;dashed=0;verticalLabelPosition=bottom;verticalAlign=top;align=center;html=1;fontSize=12;fontStyle=0;aspect=fixed;shape=mxgraph.aws4.resourceIcon;resIcon=mxgraph.aws4.s3;" vertex="1" parent="Z6Ugq1CfW-JIsn3a16Bj-35">
          <mxGeometry x="112.1" y="10" width="38" height="38" as="geometry" />
        </mxCell>
        <mxCell id="Z6Ugq1CfW-JIsn3a16Bj-39" style="edgeStyle=orthogonalEdgeStyle;rounded=0;orthogonalLoop=1;jettySize=auto;html=1;exitX=0.5;exitY=0;exitDx=0;exitDy=0;entryX=0.506;entryY=0.967;entryDx=0;entryDy=0;entryPerimeter=0;fontColor=#FFFFFF;startArrow=classic;startFill=1;" edge="1" parent="1" source="Z6Ugq1CfW-JIsn3a16Bj-33" target="Z6Ugq1CfW-JIsn3a16Bj-24">
          <mxGeometry relative="1" as="geometry" />
        </mxCell>
        <mxCell id="Z6Ugq1CfW-JIsn3a16Bj-17" value="" style="shape=image;verticalLabelPosition=bottom;labelBackgroundColor=none;verticalAlign=top;aspect=fixed;imageAspect=0;image=data:image/png,iVBORw0KGgoAAAANSUhEUgAAAggAAAB8CAYAAAAM0EidAAAAAXNSR0IArs4c6QAAIABJREFUeF7tXQdYVFfafqcy9F6kCEgTUBHsvXejKZtqei+bmE3Zzf672d0ku9lkk03vzWx6TNUUS9TYFUWwIgKCIF16H5iZ+z/fnUFpM3PvzJ0BzDl5TAyce8533nNnznu+KuM4jgNrDAGGAEOAIcAQYAgwBLohIGMEgb0PDAGGAEOAIcAQYAj0RoARBPZOMAQYAgwBhgBDgCHQBwFGENhLwRBgCDAEGAIMAYYAIwjsHTAiQK4nR9uacKq1EYt9QuCpUJyHRiaTMZgYAgwBhgBD4DeOANMg/EZfgDqdFonbv0ZlfSWgVCE5IByXBoQixj8Uy7wDEaRyAXiewMjCb/QVYctmCDAEfuMIMIIwRF+A3LZm6DkDEt28bFrBrcd2Yc2pDKA/bQFnwI0jJ+HD5Klg2gSb4GUPMQQYAgyBIY8AIwhDaAsNHIcWgx5px3YjPz8LUCixfc5VmOUTLGoVa6uKcfXOb/onB6aRosPiUTBpKVMgiEKWdWYIMAQYAhcPAowgDJG9bNJ1IjVrG06XnQZ0HeelVsnkuH70NLwXmwa5AN8BrUEP/00foqW1yeLK5cOioZ+6coigw8RkCDAEGAIMAakRYARBakQdMN5zZ0/hxeO7UU6HulwO6A09b/YcMDsiDt+nLYCXUmXWLGDgDJi9dz12VZyxLmVQBLgZV1jvx3owBBgCDAGGwEWJACMIg3xbKc2l/Md3gPZWIymgH5jxGxzjG4K3JizAFE9/vh8nAwwGDg2GDhS1t2JtVQmeObyNQhisr9o/FNzsq6z3Yz0YAgwBhgBD4KJEgBGEQb+tHFK2r8XRmnJhkqo1eHvMTBS3t2BHQzV211YALQ0AZzAyCwFmCH4inyBw864TNifrxRBgCDAEGAIXHQKMIAyBLb06YxPWFp10rqSe/uAW3uDcOdlsDAGGAEOAITBoEGAEYdBsRf+CcOBwV95hvHt0u3NzErh7g1t8yyBHh4nHEGAIMAQYAo5CgBEERyEr4bg/1JRhxa9fCjcPSDG3TIZbEsbjzcTJcJFfyLIoxdBsDIYAQ4AhwBAY/AgwgjD49wg1nVoE/PC2yY/AiQJzHFKCh+PLcQuQYGNCJidKy6ZiCDAEGAIMAQkRYARBQjAdNRTFHLj/8jHaGmscNYXFcd1dXPHBhCW4IigcCpn8fF8yf3QYDKjq0OJYSwNKW+pxc0Q8VDKmcRiQjWKTMgQYAgwBCRFgBEFCMB01VKteB/etnwFNtcKnoFBGPs6R8iYojH84OSAzAAo9oNQDcsqnYCFusvtsHId7kqfg7zFj0ajrxJHGarxZUYBtRaeADi0gl/HhkzeNnoo1CRMhYzUchO8V68kQYAgwBAYhAowgDMJN6RKJbuh0yN9ydDv+l39YgKSm/AatrkDxMKDFzUgKDKbECefzJ3BGYkB/fBqB8ArAhbIzWivMxEGtUKPDoDdr7tAoVShZehv8VRoB8rIuDAGGAEOAITBYEWAEYbDuDC8Xh2+qS/G7Xd8BdChbasQNKgKBKn9Aq+6VadFEHCgHwvkkSZQToVviJU07EFoF+NXZ7Qw5O2E8fh01fVAjy4RjCDAEGAIMAcsIXFQEgTOTIbC/vIFC6hYM9MujNRgQtnENatos1E2gNTe5A0XhQJvGRAw4yH3dcO/oAISFeCLNX4NILxcolHLoOg3Ib9DiWHUrcksa8eGJaqD5Qm0HeDYDUaWAS7vtREEmw4EFN2K8h6/gvEwDjTWbnyHAEGAIMAR6InDREIQDFc14bNsZgC7aBgM69Bza9Aa06akCogENOko5bAAMHDwVchTdlQZfjXLQvg+dnB6zD27G3uJT/Wv+ifXQn8oA4GyosY8MmBDtg/tnDscNIwMErU3PcXj2UDnW7ClBfnnzhWdizgC+jdatDmZmuSR6FNalzbdqtBAkJOvEEGAIMAQYAk5H4CIhCBzu2XAab+0oFgYgB7x/wyjcOipIWH8n9eLPfM4AOrTXVZfiyl3fmPcLoMzJRAzIpMDJ4O2uwvPXJOH2eH8bpCVvBxn+trcEz2/IR3unzujgOLwMCLE1ckKGjIU3YJyHr+2aCBtWwh5hCDAEGAIMAWkQuCgIgt5ggMvz6dDXtglGJTLWFwW3pfLO9wPR8tubUdLWgtPtLTjS2ojNjbUobaoB19oMTtuKdl0niAOYbWfCgHNGMqDwUKPy4Unwd1XZtRSiCXm17Uh4YT+gMxlmIkqB4GpxhzzHYWFUIn4etwh8wKPQ+g92Sc8eZggwBBgCDAEpEbgoCMJnOdVY9eFRUbj4uqpQ8n9T4aZyfsw+HcQjN3+M3EZT2KIYkkI+B1UBQHEob2KIjfTBkTvGSrYO8uMob+nEmFcPoqZBawyLjD8D3jdBqJxuXiibdx2GqVkkg6iXknVmCDAEGAKDCIGLgCBwmPXxcew8cU4UrDK5DHl/nIIYH+cfYjrOAM36t6DXdXMOFCI9Xer1cuBIIp/XICnMA/vuToOXWlpfCjJzFDZ0YOqbGais7zCGQI7JEUQQXJRKZM6/EUnuXkJWxPowBBgCDAGGwCBFYMgThNZOPUKe2YemFpGHLYDHl8fhyekRTt+aDTVlWLp9rfh5yeZwMg5o0QAuSuy/dxwmhXiIH0fAE6So+CinGjd/dMwYGhlQA0SXWn5SLsebk5fhrpAYZlUQgDHrwhBgCDAEBjMCQ54gPJdZgT+uzbYNYz8NOh6eApVCqO7ctml6P6Xe9wM6y06LH4yIQXY8f2D/e0UcHps2XPwYIp4gU8iqb0/h8wMmYpCSDajN52O4Ni4Vn42eAXRLxyxiOtaVIcAQYAgwBAYRAkOaIOgMHMJeTEfVuVbbIDVwOPXnaYj3dZ6ZoVmvg++6N0BmBlGNbvG5I4BGT0AhQ/3fZ8BbYtNCb3mIIOTUtCHp2f0AlWAYVgmEV/Yr9rSQKOycthJywY4KolbPOjMEGAIMAYaAkxEYsgSBDq/S5g5EPbMHep2NqHHAF7eMwdUjKRrAOVqE7JZGJG/8QLzAHSqj7wEH/HtlAh6bGiZ+DBueIJwv/eok1h+qAOR6IPWksYZDr7YiPB7rJi1xGo42LIU9whBgCDAEGAIiEHASQeCrCvCHm0yykDcOq7cV4ZXNpKq38XDngJXjh+G7K0dKWlzIWEOh/7WWtLcgctvnMPDZEUXIXeMNFETy4556bArifV1FbLN9XdcX1GLl24eN4iblA+59NTax/sOQN/tq+yZiTzMEGAIMAYbAoEHAKQShoKEdb+0vxYRYX6yM8oVaApt/g1YHn2f3Aa2dppSCtmAqA1yVqH9sKrxdpIkE0OoNWHeqBsX1Wjw8JbxfZz0qkXx55hb8VHyyW20EK/IXhQFVfpDLZWh6chbclM4LzzzbpMXwp3YbCUJ0CRBQ2ze3gasnuKW32bIJ7BmGAEOAIcAQGIQIOJwgZFa1YNH/jqK6mm6dMiDAFV8ui8P8Ed7w1ajE3KF5+MgUX9PeiTXHzuGP35hC77wbgRiBWRS7NqHWGzgTwade/uyWFFwZ7welggzttrV2nR57Sppx0zfZKK1q5TMR/mVZDJ6aGdkvSaB8A/8qycMLR7ajrr3FejKh7BigxR2eI3zQeEeq9f62LaPfp8jXQ/XkbqC9EwiqASL7iWZQKFC//G54K+1L1iSh2GwohgBDgCHAELADAYcShN2lTZjx1iGgQ9/vgXbPohF4bno4n+RHZpEqcDBwHJo7DLhhWyHWbz9rXHKXht6nAYgrEgdDjQ9QYIoCMHDw99fgu1WjMXmYO1QKYbdzMiWQXPvLWzD93SygrZczBAf896ok/CEt2KxppVGvg9/Ob6CvKbNw6HNAVhKgU+H+BdF4ZV60uLXa2ZtImdt7mWg/XQ94NwHxBX3NIxyHvYtuwhRPPztnY48zBBgCDAGGwGBAwCEEgWoJPH+oHH/9Phc6nWVvfblagYRIL6xdmYAkfw3k3ULk6JZN/xyobMXNX2Ujv6oV+s5+xrOXIHTbiSAPFRLj/fH+whGI9lYbayD1CtvrkmtrURPu/DYHZyiKwkwlSfIZePPqRNyVFmKWBHUY9Pi2qhjX7v0R4PoJIyQHjsxkwKDA81cn4eHUEKe+OzT9/K+zsS2jAnBrBZLz+vGf4PDq5EtwXyjlQBDhW+HUlbDJGAIMAYYAQ0AoApITBFJH3/1LAd5PLzP5BwgURSbDtGgfrJoShtuSAkA84LnDFfgpoxwZxQ3GyoXmGk8Qzlw4tKivjP+X8Ymuw7v7wdXl9GduTLkMUyK9MTElGE+mhcBTZSyXqDdw2HCmAc9uPYM9hXWW5eoaWybDe1cl4tbUYLMkgYjQ6K2f4UR9PxkhaSlZyXz2xOeuTsIjTiYItIwFX2djC08Q2oDk3H4dLIM9ffH5hMWY7RPESILA1551YwgwBBgCgxUBSQkC3az/sasYT/502ng2uygArfnEOj1BMTEADlAGukGh1UPbSLUABNxGVZ2AZzfPeqofEHXWGLvPEwQAxWGArpsjolYFtLhZ3pcuUuKiwF3jhyEm1APrjlRhz6kaU3llAbJ1zaCQ4aPrRuGG5ECzc47fux6Hykl930/LSuRNDPcsjMYbc6KE4SLRW0f8yu+DLNTn1QFezUCCGRmpo1yGh5Kn4h+xqfBQiPcxkUhkNgxDgCHAEGAI2ImAZASBztIPj1bi1s9OXBCJfqiWg1cHOLPx8frZgLyLdMiAYwmAVm2fFN2UEjYNpFJgw20pWBzl3e8NfM6Jvdiec6D/obNjeULjH+OL6jvGiguRtEnYCw/xTor/2gNQOms+5XKJ5fmpiFRgGL5Om4cxHr6DTpvAl7TgDOg0GPiKmaYgXDtRctzjlHxKI1dALoQs9yMGmfy0Bj0MFtRwSpmcn8MRjfx0OjlLs1ueldavlvd1IObXpedgMFhSLzpiRdKPSXurUcqs7jFxcEovb23FVKVWrZBDKbJcLUVhdeqtjW68n7jYML70yPUdkX8vdEb/MGuNcHdTiXNON45vIP/2IdForxQyGVwUMtHfxZIRhF+LGzD3zUPgv3F7X6wJf1IkiLhw24W8owiCXUKZHlbKkfvIZMT1UyTq1dI8PLD/p/5nMZV3lss5tDw1Bxo7Ii7ELqO8uQOhT+wEX7s5sgwIMlWhFDDQCxMXY3V4fA/fEgGPOaRLm16H3LYmvF+Sh3erS9He2gzoOwGDkwms2NUpVRgfGIofRk1HiFp4/gsiPkeb6jHtxB60NNQAOgoJ7r/NCo/F9pTZYiWz2J9X3LU346qTB3CgrspmnB+ISsJLMSk9vtyqWjpxx6bTWH+6zvkXEElRMg2mkmN5lA/eWBiNcG+N2a/KsqYOhL2RQQzXshRKGcYEeeDz5bFI9HcTpIilAVdtPI3PMiusr1AOJIV64fvlcYjzc14mWmuCNWl1WPVjHn6g96KrZL2Fh6L8Nci5LRUuSmEkoay5A3duPI2fCoSNb01ep/yeyKJGid+PCcSTMyPhLqKCsWQE4a1jVbjn0+OW12vvDVwoml0EgUwN1DgZcJw0CC5CR3BsP6UcDY/PgBeZYLq1/Y01mPLLx/3PXe0DFA7nXStO/XlqvwTDUUJvPlOPRW9lgmd/iQWAh4jU1jIZxvoNQ/rMK6B20A3V2rrPdbTj7uz92FWaj3MUUirgZmFtzIH4vZeLBm9MWY5VAeFWpydz37Mlefj7oV/QYYEYdA00MzIROyYssjqu0A50y1pTmou7MrbAIGB+c+PeGDcWr4+aDg/FBfNgRnkz5n58DE21bULFGTL93DVKfH1TChZHk5axbzvbqMXwZ/daJwimR+UqOdZcm4wbk8ybNrvPcs13OfiS/McENo27CjtvT8WEYY4pGidQDL5bQX07Jr97COdqtIIfUwW6oWn1REEE4VBlCxa8m4m6ZvNEW/DEA9RxWKQXjt+SAj+NsHB0yQhCh96A5FcPIr+cYvrNrV4GUA0CG1WlwjElRwZdTzk6TV8wRBacpckwI/C1s4bj0yWxfcRo0nXC68e30W/uaDKPHBnJO1++dEUiVo8f5gQcje4b13x3CmvTKfeBAUg7CSiE+pUYHUSD/ENRPvtKp2sRyIRwU8FhrMvJQGu7CFIj/EVzek9vdy9smroCk7wDLM69rbYcy/b+gHaB65aSILQb9LjvZDo+OJVhs9YAcgVWJ07A0/Hj4daNHOj0HGJeP4jismanY++sCQP9NTh6z3iEePQ1iYolCCSzu6ca6XelITnAis8V/1kXRxBofN8AN5y5f0KfC4+z8KJ5yCyy8MsT2H60StS0QglCm86AGR8ewaH8OlHjD8bOt88YjneXxQoSTTKCQLM9kV6Kf3x7yvIBLLUWgcajA8tNC7g3A2qdseKgWgso9ca6AUQK9HKgQw2QcyKRhTYN0OQO6KXJoCgIbQAatQKVf5kGr34yN35RXYJrd30HGMwcwDkxQKMb4OGCuj9Oho9E2R8tyZ5T14bE59KNX/QhVUCEAPVjrwGfGL8Af4tMFgqRJP2oGNbThcfx98xf7ci0KYkokg9ydUwKvkidY3HcOZm/YHtBN38gK1JIRRDI1+D2E3vx0alDtmtqFEqsHj0DL8SM6WOT31fahKlkyrQSPi056E4e8O3rknHnmOA+s9pCEGiQR5fG4D8zI62uwhaCQIN+fUsKrkigmjYD03acbcTst+m9EOcYIJQg7D7biBnvZF4U5iyFtwsqH5wEf1frZ5+kBKG104Dwl9JRV+ME1R9pCDyagcB6wKfxwlsplIB09aMSylX+QJOHyYlRgHpB6Bz9fFZSo31x6M6xfZxFznVqMXLTh6jVWsCu2RU4Gcdf65++PAGPTQpzqDKEbNi3/5CHD3aXGMNGx54EVCIrY8kVqLnkTvgpnWve+fFcCS7Z9a3tN9iB+Z4TNGugtz9K562Cqh/Hva4Bkrd9gexa4WROCoJAjpB3Z+/Dh3aSg0dHT8N/YlP7xeKf+0rw+PpcYeHFgtAcnJ1unROJ9xfFSEYQrhgfgq9/l2R1sbYShPAQd2TfOx6easc4uloSnJwFr/nmJL7KKLe6vt4dhBKEVw6VY/VXJ0WPPygfkAMnH5qCkQHW/ZkkJQhk9/zrjiI8vdFMGJwUaFFIY0Q54E+qnq7DnIojGU0HCrmCt1cqlSrI+YyIZNbgwHEG6PU6tOo6eY9u/kbMP96NELSrgbxoI1Gg8fprw6oA8gfotC0iYs8DEzA11LPHyK16HTw3r4Ghpdmy2YBkIjNDp4ov+XzmsamIJDWkQ0w2HLYUN2LB6xnG8SmddTzlmhDXhnv6oWjhDU70UAXKtK0I2/4V0DT01YH9oq1Uou2Su6Hppnrv3S9262c4TY6BApu9BKGxswPh+39AU6Upy6nAebt3UymUeGLCQvw5PN7s04/+WoTnqUCbuIuiDdIM7CPXz4jAx8viJCMIi1OCsOHaUVYXZStBoIFfvDIRD44bZnUOqTuklzVhMn1PWXPc7GdioQThmfRS/Pm7U1KLPmDjnXh4MpICrZucJCUItNqSJi0inttvTK8sZZPrgJEFgKvWVG7YePDzh5dPEN4ZORGL/EKgVijhrVDyYVEUHkX/GPMxkvbJgCa9Hq36Tpxpa8Li7HS0VhUbbf5dZIE60gGcFwm0uvdUT4dWAKFVRnPFyVigXYT3LgekRHgh6760HpkZSbL5h3/FttNHhB2iOjlwmMo+KzBmuDcy706DQmQok5Btae40IOi/+9BWT6aaTiCFyjwLebJ7Hw4LwuOxaeJS0eE1Ymfq3v/RgqN4PnObPUMM7mflCrSsvKeHbX4gCUJNhxbx6T+jtlJkuvPuQitVWDdtBZYHhvOfW3PtgS2FeHVrISMIIg9DZxAE/xAPnLorFf6uwhzgpPiQUYjr4k+P4ZcT1TYNxwiCZdgkJwh04P11ezGe3mBKlmTTtnV7iFTbdGsn+7eiKxxNhlDfYLyUOBkTfYMQqaGD3LbWoOvA9roqvFx4DL+eJdWlSbNAt/V6L6Awgs9gyFcwjCzplnxJBpweDtR5CTvYOeCZyxPwp0lh5wUljcvrRdm4/9AvwoUnUlQRBJwlJ0Vg/kh/bLpptKQOgE0dOox7PRN5FaTR4IxZKn2oPHV/rdtVrp9b3dOTluKx8ATHKDnMSDRjzzrsLi8UjulQ6zmICEKFth3zMjYh2w683Vxc8eP0SzHbN8hq2XVGEMRFMXS92s4gCPR99OCyWLw43VTjxgmfq61F9Vj8/hHobLyQMoLgZIJA0xU0ahHzzB5jTgRbGx2Emg4g+qwpSyKZEYApw6LxYPw4XBlApZQF+AuImP94Sz3+m5eFDwuOmWoiyACdAigMBxo8gJizgG9DT0JQFApUBliNjPDwckHZI5N72Oi+qS3H73Z+03/UgjW5CyKAal9+3pkJ/vj66iQEupHTiX2YnKhtw9L/HUNxpYkQhJHWpJ/0zyb5xgVFINHdGwEqDbxVaoDMOnIlBd5ihFqDywPCeoSoWVuWvb8nD3rXn94DLPly2DvJQD8/SAjC0aY6XJOxGSdrxNt+uyAM8fDBp5OWYK5vX4e8/mBmBGEQEwQAQf6uOHX/BPhorDvA2fsxorT3UW9moOSsucuL9RkYQRgAgkBn+2U/52HdzrO2nVd0E6WUvrFFxkgESsjo6onXxs7C7aF9wwOtvwZCexi9D9MbqnFd5lYU1Hb74isJBioCjaWOA3vZtkuDgTLLX3CPzIvGf+ZH9SA11x7eji/ys2z3IcgnDYaPcXGeamxdlYxZw72hsOC81j8SHDr0HL7KqcH1n58weogTFKS5MRu1wMHDwwcV82+AuwVbuFDkpep3oKEak7Z+dlE6J57HaIAJAr0auS2NmL37O1TY4ecR4RuEjZOXIcm9/5h/RhCGlg8Cv1+kRVgwAi/OjZLqI212nJ8KarH8/SM2+R50DcoIwgAQBJqyXqtDyNN7odWK9HondkHqbCrfzCc6kmFGSDS2T1thMoGLuyFXdbTjeFMtfzD7KlTwUrnAV+UCT3JkJA1EP1oIUv1T/7/lZ+Gpo7suaBP4EtERQFglEFp5wQ5aGgKUWyIIHI49MhnJfEazC/KXadswfMP70FMiGVu1IWdCgSqTBoPjMC3BH2suHYkobzWfZtWcloXWSB9mSkmaV9OOSz87hoKKrhwWnCljYo2Zt4eDSq7CmWW3I1Qtwg/D4V8ZwDul+bhr349OmGkApxhAgkDkIK+lAak7vkIrZaK0sXl7+SFzxmUY4drTYdfacEyDMLg1CLR/gd5qnP3jVD4Vs6NaS6cBHq8dBCpb7JqCEYQBIggUehL75iEUUiVGMY2iE0acPR9DfUfKLLwROxaUK96W9llZAVbtW3dB9S6TwVWu5B28rh45EU9Hj4IX3YD5IIie5IP8KbKaGzDxl4+gp8gH8kto9ARORQN+9UBMMVAeBJSEWNSULBobgg1XJ/Y5rOmQfio/E38/stN2gkCgtLsAJ+KMzpMyqpckg49ajiVTwvDElHCEuauhVlxYW5uOQ2GDFqu3FSLz2Dk0dOV252tndBqrNarMOJnyfgYcFo6aho0JEyQ389iyx92fuTXvENYc2WXvMIP7+QEkCDvqKrFk5zdo6+ywHSPfQFRMvxzBLtbDrHpPwgjC4CcI9B30+NIYPDEj0k6Dp/lXjFIpr3g3y/Z30PSkUILwbHopHmNRDHbjfX6ABq0eQU/vQYcYDYJ/LRBVej5K4bUpy3HPsBirBUwsSd2HIHTvzCdZUmKCbxAeGz0Nl/mF8r/teevmkNvWjHk7v0ZJc71Ra9DoBeRGA66tQLur+ZBI41mK9ben4JI4v379Ayo72hGy4X3zefKF5Fzgqw8pjD4JRFY4IlOmB/k1AgoXJTwUcjRRkRHaE/KC5jUoJkAo2RSZT3wbTfibQZW0FCFR2D51JZSiTRnSvV/mRpp1ZCd25lFaaBHNVu2NiCkk6UqpqvnKKwq0Lr0drk4McyQy+1pFIR44sBGwgxxMjByJLWnz4KmwzdN99ZYzeOXXAsdEMYj1mbLtziLoVbhhegQ+WjoETQxdq1PJcfrhSRjhI54EWgOopVPPXz4rJMimKZQgvJxRhge/zrEmmvH3GiU+uCxBUCIiYQNK32tulA88BOSskDyKoWspbx2pxD1kzxbUOMCz2egtr+CgkMmxZuoK3BBivx3LIkHoRRZmho3Aq2NmYLS7Tx9tQmFbM5bs+R6n6k3hNBRJQH4JAjjyuKRAHLhhVP9Eh+PwVmke7tn/c8+hTCYAXkT+IKBskF05wC2YWUiLUOtjdKps8AQM9C3WX39KR603Ol0S9jwxEBBcrnJBxtxrMc7D5PsgaH+d12nWoV+ws1Dge+fqgdfGzcUkN2+juYmglhnNMvR/XT8j7VVvBJVk8Or1Q3q2d0/jzyw30viYi1Slp5Xn57mg4+qefri/0aXOg/BGRSHuO7jZLufP1Ih47B6/0GJ4prU3hZKxtekkDqE2TXrz+lz8mFVpTQT+98N8XXDk/olm903QIBY6aZTyfovq2JpJ0SlRDL3Wc/es4XhtUYzkYdhvHa7APV9mS0ISHUIQPFQoWT0JYZ625cqx992R8nmHEIR2nQGurxwAqgTmv1fogOQ8wKUTkMvxxLiF+NvwkZKsUzBB6JqNM+AfqfPwWPQouPQqLnSkuQ5zd36D2jaT7TU3CmigMEcrjeOQ9cgUjDWTmKJR1wnfjR/AQJ73cgUC3X0w1dsfLm7euCciDtO9AnCqrQk3H9iIDPIYF+qGQSGKlFq6xc1YqEpPt0+DMZeEe4vJAVToYMa6Ci+MW4AHo5IHnWmhawdm7v8Zu0pyre0I//u5YbHYMnnZoF2LoEWY6SQVQaCiS/89k40/Hd0JdAovgtNDLLkcl0Ql4cuUOXDlk5cNzva7b7LxzUFh2SfD/TQoenSKXdpNW1AYSgQBLgpk3jseqcG2h6H3xqiurRPj3spEoZ2+B13jMoJg+S2UniBwwPH78F4pAAAgAElEQVSaFoz+z34yhgv7DIw8DXgYnU0uTxiHb0bPEPacgF6iCYJpzJWRI/HJ2Hm8h353k8O62gpc+utaY/1qUuV3ZTa0JAsH/N+iaPxzTs8ohu6P7GuuhgYKpHr4mh1JbzAgMWsbCopOgEJ8BBMFATgJ68Lh7fGLccfwkYP2UJ25dz12lQnL5LkgPA6bJjk3iZMwnO3vJQVBoGJXL5w5hseyttteV0Emw/+Nno4nYlMHpUmqO9KMINhWrMnS23rTlDCsWREv2ffF33YV46mf8u3/gJhGYATB2QQBwHP7SvDHdcJucfBqAuIL+cMuLTACB2dcLikrt5UgEGyTA8Kwd+bv+rzcrxafNNpiSS1d6wvkR1g9rKlARtufpkIllDRZ2LdDTbUYv+VTwEARIgJJmEQfqZtix2LNmFmSfeAlEuv8MIwgGKGwlyCQsemFM8fxSMYWu7bo9qSJeCtxCm+6GeyNEQTpCYLMTYn8B8gXwf5aLJ0GDokvH8BpibQH9D4yguBkgtCqMyD05YNoOCcg/IQc41JyjNUYFUqkz7sOEz3JmU+6Zg9BICmmBkZg+4zLoOoWRdFm0CNgy2dobTSFAVL9BrL3W9QicHjpumQ8MCbY/sOVA061N+PWzF+wt8KO9LY2wOzqE4jWedc5nZgIFXXmvh+wq/S0oO7jQiJxYNqlkhJSQRM7oZM9BIHMCjcf24VP8o+YryxqbQ0KJR4fNQV/j00bEuSAlsMIgvQEgXBdNTUcn6wwX1/D2qvU9ft/7S/FX+niSf5ZEjVGEJxMEDYU1WPpG5nCLraUiCfcaPP7v5RZ+GdsquT3YXsJAsl2WUwK1qbMPu+0Rj87096M6E3/M0YftLgC2X09jntDPzXGB7tvT7WfIPADc/iophw3/fqlfSGSYj9ocgXOLb8TASr7bwRipxbSf2b6Buw6K7CoikKJFaEjEO7qCToUu3s9GTiuVyJQju/T87vJ9DMyOHH0dwMfO8L/lyMjlPG/vZuxz4VfkOuhm0IBP7UrPD28scA3EGmefghUa6ymHjaHia0EocOgxxWZW/Fj0Unbv4jVGryWOhf3RsRL/nkW8g7Y2ocRBMcQBHc3JbbfmYbxIR62bg3qtHokvHwA52qlrRTMCIITCQKFQt238TTe3EG3WisqRSobPCoHUBoAjQcqFlyPYAck3ZGCINC3/rvTVuD2YSO6oclhWcYv+Lko2/izUyOARisfAKUcpx6ZhHiJQn9+rqvAsq2fO5cgcBzWzb0GK/ycX7VNyLfLrIwt2HnmuJCug7uP2gUzg4bjLyMnYIEP1SgQ12whCOtT52JBxiYcLLHDxqtQ4u1Ji3FnaKw4gQdBb0YQHEMQaGuTR/rj2E0pNuWDIy795x1FeHaT9FU8hRKE1zIrcP9a03e9tXdVIcfseD+4XQg/svaEfb+XyfDGsjhEekt/aZPUSbFTb0DMawdxtlyAeSGoxhh3zwFvTFqCux1U0EcSgkDbp3JByeKbEabS8AcykaGyzjZE/LwGHIUftmmA49bVaKNSQ3Dsaut12YW8MdvrqzCHfBGE2ncVCngq1Ah20cDVxQ3w9MNNQcPxU3UJthccB8cJCR/j8FjqPPx7xBghIjq9z4Lje7Al56DT53XYhDIZbh45Hq8kTISnUnjuALEEYXToCNQZDCipEF/S+/zaFUp8MmkJVoXGOAwORw7MCILjCAKUcpz8wySM9BefF4GvEPz8PkArNlGF9bdFKEF4M6sC91Jo5WBsMhmy/jARY4OkixbpWqZ0BIHj8GtJI+a+dsiq8oDXwybnA+6t0MgVKF1+F/yo0I8DmmQEAcBDIyfhv8lTekh5+cGN+K74pDHfwOEkY8IiC83bVYXyv06DRmEsRW1P29dQjam/fAQIyDIZ4eaFgsW38DNS3H3vmb+qLMJVe74XoFbmcMuIFHwwdq71fbZncTY+++LZHDyUvtHGpwfvY25u7ji74Eb4CTTtiCUIdq+c9yG6BhO8Aux8q+2WxOYBGEFwIEGg751wL7TdM65HVlchm/Xg5tN4eZtjfK0YQbC8A3YRBLpFU7Td0Zo2/GFDPg4XNaKhRUAKVtd2Y94DcIiPSkLO+IUO+1KRkiAoVC4oXXwzgtUmFsxx+KSqGDfs+s54WJ4NBcqtV3aESo5Rfq64dnYkHhwdBFdSRfH1H6yl1Om5mZmNtRi3+UPrBEGuwN75qzDFigNodnMdknd/D7T0To9tyrhoMODmhPF4ImE8hndhIOQT7sQ+R5pqMfaXTy7KYk0RIVHImbJcUKIhpxIElQu+nb4Sl/qHOuxz7IxXiBEExxIE2sOt943H3AgBuWNMG55T24rEFw8CnUK0m+LfEkYQJCYIRAooS++O0iZ8eLAMOwvrUUwJkcRchvkSwlV8UiA+csHLX/zOCnxCSoJAU96VPBlvJUw+v95Wgw7uGz8EKHmSTglkJVr3v+iSnQPc3JRYHOuHS8eF4Ko4P6gtFFjqveTDTXVI3biGTy5lqT04ahpeTJggCLHyTi1uzdyKjeeTDRlTNrsGR2HtyIlY5j9MIidLQeKI7kTOf54b16CtpVH0s0PhgXcnL8Pt4dYdYp1JEII9fVG04Aa4DMLU22L2lBEEkQSBvvNFBhSkJAXg4PWjBYV7k+/B6l8K8Oo2kWYvEXIxgiARQdDqDUivaMa2UzV4IaMcTbXt59P9i/kQ8n0TTgNeLfB09UTdklsdGgYlNUGI9glE/tzreoTGXZO1DV8WHDHCcDgR6LTBXEIfNE81HpkYioWJAZgV6gljqmzzzCurpQFpP79vkSCMDRqOg9MuFZWkRmcw4PfZe/F2/hFMCQjDHfFpuCkwYsiEA16VuRVfFRwT/VoOhQeG+4Xg8IzL+IqklpozCQLJcV1sCj5MmdUjHHgo4NldRkYQxBGEhGEeKGvToam+XfhWy4Bvb03BZXHWL4Una1qR9OYhoLkrxbz1aeRKOUbE+CL/lLlKtD3HYATBDoJA2oKs6jZsya/Fn7YVAo1Ultj6JlntkXKSrxo4ng6vGZdb7W5PB6kJAt3WS5begbBulejWlObh1q4SwydjgRY7nEVMjNzdW40XFsdgzggfxPq49gt7gbYVK3d9h+OtjYCuo6//gEKJw/OvR4q7t3BHRhPYVMmyRafrk0nSnr1w1rNbasuxYOd3RkwutiaX44Mpy3FLj4iavot0NkEgR9n7EyfhmYTxgkwgg3FbGEEQRxBmx/risrEhWP0NhcQK39HE4V7IvDMNVG/CXCPtwZLvcrDpQJnwgWVAakowQtVK/HSgVNBzjCDYQRBadXr4PbUbWq2E9h9VJzA6hy8MNC9pErYk9XT6E7SrIjpJThDA4f/SFuCf3eoR7G6oxoxfPjbe9otCgXMBIiS00JWvxChH0xPT4aGigk19G5E4alQVcnnuQRwpyoFB28r7hnw76wpcFhgu3OQhjdQDPgphsvrUAbx6fN+Ay+IIAW6MT8P/xsy0OLTTCYJJmnsTJ+DlpCk2l2d3BF5Cx2QEQTxB+P760Qh6JR0dtSLqdMg4vHvNKNyeQsXu+m+89uDVDKCdssUKa57uKhxfPQH3byvC+v2MIAhDzV6C8M890IrYJKtCUWrlhEK+2wfTVuKWkGirj9jTQXqCAMQGRyN32orztvhybRtCf3zHaJA75wecoUNZoqaQoeWJWXCzwLa7z0RJeso7tKhqb8EYL/8eyZ0kkmhIDNOq1+H+43vwQZ79NeMH24KnBg/H7umXWfQFGSiCQJqEW2NT8M6YWQ41HTpiTxhBEE8Qtt42FpsL67HkvcPgbyUCW2KYJ47cN96sL8LkD48gPUeYmaBrynvnReH1BSOw8vtTjCAI3Adr3SxGMfAaBKkJQkg1EFHGe94fWnAD0jzNFyeyJry533fdqnPr2vFpSSGeyt0kWsVuae7h7t4oWHgTFCanLK1BD81P7wEdbUCzO5AdI40phoQQSRBsxexifI6yAj5fcBT/OHkAnVQp8yJpGk8fNCy4EWoLToFiCYKPpy/qta1Ah4iboDk8ZTIsiRyJL8bOhZeI3A0DvT2MINhGEAycDMlvHERuSZPwLZQBL1+ZhAfSQvo8k1/XjuQX0tEhInIhxM+VJxxB7ipGEITvgtWezicIRA6IJCjVxsRDlLDHAe3BzQV4eU8uIKNMjVogtkiyQzvQxQ0lS2+D2lQOmniznEwMVJtBqwaOJEhHSCwQBPITMLqECHMMOdPegvSmOiz2DYI3/8Ut7DkHbI/ThiSyeKy5Hi8Vn8RPpfmoaq4f+iGQag3al90BFwulk8UShOnDR+LxmDFYmb4R7eTTYm+TyTAieDgyJy+Dt9IGp11757fheUYQbCMIlFfli+xqXPvJMVFahOEh7si/fyJUigvfQx16DpM/OoosgU6GXdv8wNwovLzQmOl2UGgQXJXSnQHW3mU5cOzucRgVIP1Z6nyCMOIs4F8HqF1QteRWBCqlTw9pMHBw+ddu6GKPAko9cDQeSMwHXMgb1v5D0V+tQSl9QZsIAn9E7/gaqD4L6FTiQh2tbb4ZgkAFo7bUVOCJM8fxS+pc+Fq5qVV1ahFM4Zh0S1Qo8UDiJNwUMRJp7sJjkq2JOth/TyGQZ9qasbG2HD801aJF2w6OKmKKUI06Yo31TbU4UVMufGiFEq0r7oaron+/FBpILEGYGZmIHRMWoaKjDSm7vkNVXZVweSz19AtGwdRLEK2xPQ+/NIJYH4URBNsJAhHxce9mIaug3jrQXT3kMnx8/SisSgo8/628t7QJ014VlwnV3UOFnNWTEO5pJKIDThDcVMi7fzwivaQ/28yBq5TLBSfUFb5BwAAQhGLAvx5wcUXV4lsQ6IDbBb2snv/ag5aoYwDVfKAbPZED0iK4dNjNEfzUGpQtu7NH3Lds17dAVbExk2ImpVK2n4jwG9mLIJCPAWVQnLF3PdDazE+jUKpRvex2+JjBUm8wYOrBDThwNu+CWMb0BqhYeQ+CHUDSxLyEv/W+bXod3DasAdoFpCgnsOQKtKy8x2K0gK0EgYYn08zs9J+wr5R8hYTblc3uo5snDk5fifFeEjnvOuiFYQTBdoJAW/JTfi2Wf3gE0Il4ZzxVqPrDZAS6qdCmM2D6x0eReapW1A4/dUkc/jot4vwzg4EgFK6egChvjah1DMbOzicI0WeBgDq+tgGvQRCYOlYMeKR6f+lgGR5alwNwBsDHHahuJzpkJAyBNQBVkpSbTkkxgwMIULuidNnt500MvAZh+5cA3QJ1CiDLcQThy8ozuIayHXZvHAdKVpM997o+KauJLD2Zl4l/HNvZL2kpv+RuhDigSJZISH/T3XkfFiIIlGxLSHMwQSARGjo7cP/J/fg4N1OIRFb7uLl6YMO05Zjp09fmbPVhJ3VgBME+gkC5chZ9ehw7sqtF7diLlyfgwYlhWJdfi0s/IGdHEY97qVH2wEQM87hgxmIEQQR+Vro6nyCElwPDzvFq7oJFNyPa1TGqRzoYS1s60KbjEOWlxvHqNnyfXY0n95wFGjsAhR7wbjL6Q7iLywQZ5uqBM4tvPZ98iOaSb/oQaKkH2jXAsQTpdqiXBmF/Uy2mbP6o7/gckOwfgrfS5qGgrQU/NdRA19qA9vZW/FxRCBj6D1XNXXIb4tw8pZOXjSQagcFIEGgRpNn4Z8ExPH1slyR+G94aN7yQNg+3hMZIpV8TjbWlBxhBsI8gELa/FDdg4VuZosx2Kg81Tv1+PFZ8fRLH8+uE76kMePXKJNyXFtLjfWIEQTiE1no6nyAE1ALRJfxtdse8azHTJ8iajHb83qjqMqUK4MPCmjv1+DS7Gl9nVWALqbJIw+DWZtRq+NUbfRasWAdG+AUjb/Y15zMLNus64fnTO4CuE2j0BHKirY4heFG9CEIrJS9a/3r/RZXOa/a6/mJaiIX17F6wCtO8AgWLwzpKj8BgJQi0UgPH4V+luXjh6C7Uk0nL3qZQ4t7ESXguLnXQJVRiBMF+gkBOhou+OYntmRWi3pSUGF8cOVMPPo+/wKb20+Dc6knwculZII8RBIEACujmfIJAt3VyGJRxeGriYvw1gmoXOLfxYZAy4EyjFn/YXIhdubWobdACcgMQWGskC25kkiBdV9/TdVpCGnYlzzzvFFLQ1oyYn98zLqI8ECgZJt2C+vFBUK57A9ALTyBiVhiOw9o5V+FK/zDp5GUjiUagQdcJnw0fAEJDMZ1gYui+CPrK3l5bgavTN+Bcn0JeopfLP3Bzwji8ljSFz9Q5WBojCPYTBNrLjMoWTHwp/fzFzCH7K5fhw+uScdOovhdMRhCkQ9wqQQh9Zh8amiVMWUuq/TEnAaUBM0eMwY7UudKtRuRIXfkSyLv989waPLguD3UNWnDk1U4ZHyNLjWYI3lfhQtsx/zrM8Ao8n6jmq5pyXPXrF8awlvzhQB1FBoirzNiv6DLAw1WJqr9Mh6vCOJ6BM8Dtx3eg7RCR/9wCLrclT8HbCROHXFIbc0v6X2k+ioU6+4l8XxzV/eXyQtRUiChI42SC0LXuvNZGpO74Gi0SFcJaPDwBa9Pmw3OQ5EpgBEEagqA3cAj84DDqxJgLRH64IoPcUPCHSf3Wh2EEQSSYFrpbKffMobZdj/SyJtz2cz7KxSTCMDcpnbVjTvG5CUb7huDo3GukW42dI3XqDShu1OK+7cXYdLAc0BuMvgqezUBUCaDWAa6e6Fh8K1TdktS8UHgMD2duMWobTsQCrXbEoxI+ShlGJwfhswVRiPR2gYeKQliMBKFW14HAH9+FQS+0gIkFR0ye93AYFpWEM2nzezhd2gnlgD0+Y/tX2F0tLM3qgAlp78QqNdqW3wmNA8IcrYlG4bIrMrch/ewpa10F/d7HJwAHplyCOKoXMsCNEQRpCAJtY1VLJyKe34uONgnT9He9H3LgnWuScceY/lM1DzhBUMqxMC0Y/i6DRzvW+6P1wuxIhLhbz09ihSBcGJYq/OXWa7G3qB6P7ChGQ4XAkKz+PvQxZwC/RqjVGtQtvQNuFhK+DMR3BscZUNbSiQ2n63Dn9iJwZS3GCAj3ViyZ4IOfF03vkQQjfu965JUXGEPCspKNZZ/FNDqoVXJckTYMV48OwJxwT/i7qiDrZd7Ib2tG3NZPzaiiOYCTGZ0kSYPR5mL8fyI4Hq1GTYjafB6I0cGR2DRhMa8VadB18LfwtU21uNzLH0t8B6/neW+YfxMEwc0L2sU3S5pJsSsPgpDXtlWvx+qT+/Fe7iFJnBddXT2weeolmOYbbM39R4h4NvdhBEE6gkCbcPNPefjfrrM274e5B8eM8MGB28bCxaRV7d1vwAmC5CuWfsATD09GUqD1i6xggmAU0Xgb1Rk47ClrwpfHqvDZsXNoqG0VF/cfUANE0y1PhjXTLsHNweTUJ1HeAImxpLWuP1OLTw6V47vj1Vh7/WhcGed3fr1nta0YTiFqdKNvcTOmWRbyNUdQuiqwMt4fUxP9cXdyELyM9Z37bWXaVkzc/T1K6/tJYKOXA5X+QLUf0E4ZEuVGQtMlB/9XzkgUgmsA3/r+RSSiZjB0c4DkMDIgDCdmXjlkSj3/FghCgn8ITsy+2qJZyJ48CEI+QmSWezQnHS+ePCAJSYBag08mLMC1ISMG7F1jBEFaglBY347UNw6hoVGC9N3ntQcyrL1xNK4caT6nBiMI1j/BDiIIpom7nT0degM2nKnHa/tKkHG2GfUNAmzjSqromMvfbj39h6Fm1pU9VPbWl+fcHuSrQDfr8lYtglzV4I9xmYynS3+lMLAu80JeFFDvZZkfyICZsb5YnBKCu0cFwldD2ga6/ZvG5Dj8UFOK6vZWtOt1IG1Go64TX5efRmZlSc+x6ZlGD+D0cJPWgoO7hwsSfDXwdVdBrpBB16lHRVMnTta0AR0mdZ9PEzC8FNAI8S3h8MHUlVbLCzt3R8zP9lsgCJdFJuGbCQst0lBHEwTaAYpweKnsNJ7M+hUNUvh9yOW4PWkyXo5LG5AIB0YQpCUI9L1518bTeHdHsWRfD7OSArB51SiozWgPaCJGEKzD7ViC0Gt+/gCFDGebOhD9/D7ouw4ic3LSwRZjyqgok+Hoolswegik/O1d+4C+IJO3f4mc2gpjgqTDSUa1voXm565CxV+m8VUWiXT0bpTqdhgVfqK8Bd3dB3q7EtD/VwYAxRQxIYOXmwL3LorBX8cNg7uKKMyFUEf6W0VzB363MR/pWVXQ68i3wgAk5hmjNaxoPOK8/XFq/vV9TB7WX0Pn97joCYJMhj+mzsGzI8ZYBNcZBKFLgPSGaszf/R2a2+wwO3ZbzbSoJGxOnet0ksAIgrQEgba0sF6LhFcPoLNFqM+UhddaBmy6axwWRln2V2EEwfr3rlMJQpc4RBRWfpGNHw5XWDcZeDUDCaf5c2xazBjsGjvXYvla60t2bg86dL+sLMK1u78zTlzjDRREWhUiOTkAx64fbXatD+Rl4tUjOyzjR5NX+QNFofx8mjh/lF0/Cj6meOD+iAf1o/3Jq2/H5LcyUVevNeZ84CNKSLNgmdgcXHgjxnuSaWVwt4ueILhocGLONUjy8Bk0BIEEyWlpwNjtX0ErNBukRelliAuJRNbk5XBXivTnseP1ZARBeoJAX1X3/ZyHN3fa74sQH+2No7elwkVpOUKMEQTrH4IBIwgfZ1fjpo+OWicIlGNg5GljFkO5HBvnrcIi78Gdq/0C7Mbbeey2z3GaitqQD8DRBJOa38JBKwN23z8B00LNZS7kkPTrlzhZQwTLwiZrVcDxeL7uw8SUYOy+OhEqCyq37iMRSShq1GLW+0dQXNUCuLQDo/KNOSD6a3IZnhs7Fw9FjRow27D11/1Cj4udIFD+gPdGTbcalupMDUIX+pXaNsw//CuOn80Vs2Vm+wa5e+HbaSsxzctfkvGsDcIIgvQEgTDPrW1DwusZgB1aBFK27rh3HGZEWI92YQTB2psODAhBILHq2nXwe+UAUCvAF4HCB4kkQIaJYXHYOXFxjwqJ1pc5MD3okH2qJBd/P7DRqMqv9gUKLxQLMSdVeJA7ih6cAHm3EMnufU+2NCCJUjZTdkdzDIG4CWVqbPbEyFBPZN6TBlfepCCubS1pxPw3yAudA0xRJX1GUKrw3rgFuDUsbshod2bu/wm7SvLEgTFUemvckT3nKiQKCAlM2Po5cusqBa9MTBSDpUHbDDrcl70fa6iGAzm82ttcXPFO2lzcGhprlRTZO9VV3+bgqwNlgoYJ99Og6NEpTifNpU0dCH9mj6iMg7SgxSlB2HDtKKtru+a7HHyZLgyD2bG+2HrbWKsYUF66/6SX4rHvbQ+NnTY6CFuvTrKqPaAFOoIgvHO4And9kW0Vv6HSYcAIAh2Y/9xTgsfX51rXItDhmlAAkLkBMrwyYRHuH+78zIpiN/VseytiNq5BJ0UukO/B8Tig00pMKQfcPCMcHywzf9h26PW4+dhOfF5IddXNfLmStoKKQXFyfHprCq6Lt+12RSTn/s0FeH3bGWMBq5ScngmhlGqsm7oClwSEDRlyQPv4TFE2/nxws9gtHfT95XIF/jd5KVYJrGMwec86pJdTNUZhTSqCQLO1G/T4S34WXjixX5qMnyoX/DFxAv4VlwalKR+IsFWJ6/X7Xwrw+lZhCasGiiDUtHUi4L/7gWZxNn2hBOH69bn4dC+lwrfehBIEGqmW5Kbsig1CHKN7zu3qpkLGPeMEheWJJQhBwzxQev8EKOWWTaw/n67DsveyJCluah1ZB/dwUaDwocmI8rZejlpkmKMwwfPr2xH3zF5hnSmigRInkYpb44ZT865FvOvgLR7El+bd9wNAme9I70V+AFXCTCP7H5yISSGWi1PRwf1yaT7+fGgz2qm2Q+9WFgyUBMEzzAv194+3yt4tbcLx6laMfm6fUVuRnAu4d9P6BEeBm77Sqm+CsE12Xi8qVey3+WO0NIuoS+888WyaycXFFf9JmYXfD0+AXEgILYAni7Lx90NbBN/ipSQItEhy4F1/7iyu2PsjDDrxh0IfoGQy3JY0Ce8lTrYJQyEP/XKmHgvfywQEZDEfKIJAuC5am40tWcK1Q7R2oQThqQNl+Nu3OULgghiCQANmVrRgzvtZaGwS/j64ahR4cmkcHp4QKjgSXowG4aapYVhzSbzVS1BVayeiX8tAa22bIGwGc6eJcb7Ye8tYKKyQIlqDQwgCxUgPX3MUZbk11nEilXlIFTC8nI8AiPMLRs6cq00H3+DKjUCH9+N5h/Avqm5HX9RNbkCOsLwHMeGeyL1vHOSCbkAc8lqbEU9JkXqnVM5KBDpVeHJpDB6fZd0p0tIGUHlWzRM7gQ4D0FWGu+sBTz9wC2+0vn+DsMcP50qwYs/3gE7AN/0glL+7SDMiE/FNyiwEiizJTQWgrsrcivVnhKlFpSYIXWsoaGtCzLYvAAkiHEZ6+SF74Y0CKZL4je00cHhkSyFeIa2alTZQBIHEqmztRNxL+9HUKFyLIJQg1Lbr4P9aBlBNuW0sN7EEgUZr6tDjQFkTn2nRWlkmygszMdQTQe6U20V4E0wQFDIcWT0RY4LcBQ3+0qFy/OGrk4L6DtpOShn23zMek8KEXcIdQhAInAPlzZj06kHrZT+7kvjEFgG+jbwKZ3zoCOyavAwauXjbuqM2hsjB08XZ+OuhrUYfAYPMWNZZq7YWAMCv6YnlcXh8erhVptpd/mMt9RhDSZi6wiENciBjFJ/06L0bU3BbkjDNhTlMaE1R/zuK4pwaYFgVEN6tApuLKzqW3jGo81OYWxfdsnbWVWIORYPUVpp8Ohz1Zkg0LhFH8k1RqhDsF4wHho3A0qAIJLt527wHdZ1arM7NwMd5R6yq+mcOH4kdExZKtJiewxxrqcOtx/cjozTfbNlxIRM7miB0HWCPbivE23tLL+QN6Ue4gSQIJE5OTRsWfXECxSXG70xrTShBMH53N2HSZ8eNJMFC2LYtBMGanFL8XghBUHqq8dutMYEAAA7XSURBVO1VSVgW6wcBF2leLCKQrx4qx8Mb8oHWIXb5oDPEU40frkzEUhFrdhhBoNTMw19IR3m1QJWMUgfEFwJuxqyM86NH4duUWYOgkAvHVyV79mwO/py1DSB1KR3UOSOAZnfr5IDeLI7D4UemIEVAasvuH5A6XQf81r95IbOhTg5kGh2NvrkzFZfH+Nr5eeJwxfo8fEs2x/PZLU1DyuRoXHkPPBXi2LudAkn6eItehyNNdagjXxEBX6KSTi5iMLlcBk+5Ar5KNUJcNPBSqG0mBb2nJW1eSXsLSjra+EJf5lqQyhUJDsxFQqafU62NKKaKlTbuhbdShek+ji9NTgTzVG0byps7eR/e/ppGKcf0cGG3MBGvgqiudBs/ca4VzZ3WnUGD3VUYLeL7hzQJx8+1gso3m2t+GiVSQ9wdptERBUa3zkSeSiyYMcjfIMFPgxAPtWjZ6Swoa9Yiv07LE4ah0EgP76qSI8HPFX6uSlFrdhhBIOgSPj2GvKPnhB2ihLSmHYg7Y8zwx3FYGpWE98fMRAivXh0Yc4OOM+C/xTl4LHMrYNABBgVwJgyoEX44R0f7IO/OsVAIMi9ceOXohi9f9/qF2x85KB4iDQLw2S0puDbBNgfFrhlo/ElrT+JgVrkxBfPw7t7LHDbOvhqL/I25FlhjCDAEGAIMgd8WAg4jCC2dBoT9ew8aWoXbyXjoXbRA4mljuWVOhhj/EKybtBTJblRC2bmtXteBh3MO4IOcg0Y1P2kOioYB5/xF8ZWnlsfhL2ResIHkyNe9Aa7LyYtYV2Yyn//glcsTcP+kMLsAIS2P6rl0oK7NmHqZSML5xgFyJf4zbh7+EJHIZ35kjSHAEGAIMAR+Owg4jCC8fbQSd392wjYk5TpjrQYqr0y6A6Uaa6etwBX+zgm5o5t1dlsjUnavg76xxuQDwAG50UCDeKIic1Gg7i/T4W2hGFNvoEiGRr0OPj+9azRr8I0zZmus9sHcUYHYcn3y+TLQtgBd0tyBiCd28bWdMJLCTftPlZsWHo+MiUtE+U/YIg97hiHAEGAIMAQGDwIOIQhkG/N7bh90IsJZ+kBCJIEqPvo28Ld1mUyOxMBwrE2bhyR3L5tu40JgbzXocM3RXdhclA1tV5hhpwI4FQO0kanDhsYBL1yegAcnUqiO9Zs4kYNdjTWYteMroLNXJTRyiqSsjXI5jj00CaMCrJfs7E9imuO9w5W4k5J/UFbL1K6Uy/2vL8bLH0fnXQe3QeQ4asNOsEcYAgwBhgBDQCACDiAIHH4+XY9l72SJUsP3Ky+VKA6oBcLL+cqPvJpfpcay0Fg8EjsWs7zJYYkqLVrOzW0JCzooqZ1ub8aThcfweeEJ6KgyHf9zmTFL4tlhgN6+nPDDAlxxevVE61kPOQ6flBfihoxNfclB10KOGKMnFo0NxoZrSItgnXT0xqCkWYuYlw6io7kDCK0EwizHVfuERKFm6kq78i4IfCdZN4YAQ4AhwBAYBAhIThB0Bg7TPzmG9Oxq6ZZHzouRZQClZubPQqN9fGRQBG6PiOcd6eJcPaGWUxoZC4clzwU4PnKHzv/Sjjb8UleJ70vy8EPZaVPOAdPz7RqgNBios577W9BCOQ7/uWIkHiEtggUZ3y3JxZ0ZmwHyvDfXr9YLOB0JyOR4/ooEPDRumCiS0K434NKvT2JTZqWReFEWRb5gk5kmkyF9/vWY6KSc+ILwZJ0YAgwBhgBDwKEISEoQ6PzdX96MqVSLQeoIEDrRfZqBsArAtf1CWmD6OcWPe/rhqpBILPYNQbS7N9zULvCWK6CCDBQEVGfQo0PXidK2JuxvOIcXK4qAOirTrDOdwyZi0KEyllGmP5TrQPzl3OyGxYd44MQD46E0U4uBHvxj/mE8d2S75U0nbAvDgRo/QCHHh9cmYlVSoMVxuwZs7NDjknW52JlRzudTQOwZwKfRYlrsCA9fFFGCGhs0FQ59e9ngDAGGAEOAIeAwBKQlCByH3284jTd2FEt6sPZcPQdotEBEufFg6+8EJ9JAB3tvknL+sO/n1G9zAYpDgQZPB8oOvH39KNw5KsjshlK8uGbT/8C10trMNFoX/ckdATR58H8fmxSATVcmItCNKFHfRqaUozWtmPHuYTQ1aI3Pk1mBzAvdH6DQyq7HZXLeqjMvfjw2jZrmsJeQDcwQYAgwBBgCgw8BSQlCc4cewS+mo7VOQCVHu7HgjOpxt3bArx7waTKGRgq98VNOgUZPoMYbaHbj0xcLf9h24SP8XVHw8GSLxUGePXMCjx2igkNWFkNrKL4QdqlRyxE+zAPLEwOwKMIbGrUCJU1afHe6Hhm5NSimPOJ84hMDEFUGBNb2WIjK3Rvp0y9DoFLNV86jhCIqmRzupIlhzom2bzp7kiHAEGAIDEEEJCUIf88ox5OUq1roIS0ZYGRm4ADKxqjuNFYnVNAfg1GNTk2vAOhA7VQaKy92KI1Jj5zdZMCGu9KwOMrH7MzVnVoEbl/L+xiEa9wwSeOOcFcP5DbVYQOVMu5x4wdQ7wmUhgCtrhd+19WnuxaF/k5RIaQ5IDPN+XE4wMUdW2dchrnelL7Z6Rvo7F1g8zEEGAIMAYaAFQQkIwh6gwET3s5EVpEF1bjDt8MUeWD6T//TWfylwyXkJ/B2QfMjk+Gu6p+gcODQpjfwyYlUMtl523+rXodbju3G2oIjF9Ivd0lMyyKNSJ2XMRxTpzTmUacQRson4d5i1LS4UdhkLwwUCvw47TIsDQxzWPioc4BlszAEGAIMAYaAVAhIRhAatTpEvngA9WRe+K1fQOn8JUO+OUdNjsOW+8Zj3nCRERIm34pVuZn47MReC4VvONPcpo3o0qLwvKDv5kyPTsautPlMcyDVp4qNwxBgCDAELgIEJCMIdOs9SBEMb2ZC32EhZO4iAE3YEsjkoQB0fQupuLirUP7oZPhqbCuERA6Hs/Z8j12VRcJEsdiLck2EwzDzdyxKQQI02RAMAYYAQ+BiQUAygkCA0MH1XX4trlhzBDDQwSgigVGX1pv30CefgkGkhujSBNgikosc0BIWxgUG+7jg+OqJCHC1jRwYXzwOy/b+gJ/LC8S9h/1ZVwhrN0/oltzGOyayxhBgCDAEGAIMAUJAUoLQRRK+za3B79YcA6i8rKBDh1TiMoQFueHxuVGYH+2DDfm1ePZAOUqKGwZ+p9Ry/H5KBI7XtmH78XN97f+WJCQ/AFc50K5HZIArtt+RiihvG1M2d83DAb878DO+Kcm1jI1KA7h5IN7NC8GcAbvKC/vfD7kCjSvuHtKlnQf+JWESMAQYAgyBiwsByQkCwUP11D88cQ53f3ECnTorGZM4IDrYHfdOC8PtY0Pg43IhpbFWb8Cu0iZ8eKgcn544BzSLrAxp515FhHliVWoIVqcGI9hdDXLEzKpqxevppfjkaBX0lKZYEAEC4iI88dEViZgc4mGnVMbHVx3chM+KT/Y71l0J4/FY7Fj4K1347JIUqthu0OO6zC1YV5TTr4/ImWV3IFLjLolsbBCGAEOAIcAQGPoIOIQg8JoEAE+ml+JfP+Sik7fD91Vfh/u74tZpEfjTxGFwI3u9hVbX3omXs6rwTUYZjle2AJ2knXDABqjkGB/hiUdmR+GyWF/+gO2v1bfr8MDeEuw8VI6imjbzgnAckqN9sen6UQjzUEsiMJlybsjagk8LT/QMSOCAqWEx2DlpGRT9yK3nDFiS/hN+KTl9Hju5ygVTQ6LxQ+pc+KikkU+SRbJBGAIMAYYAQ2BAEXAYQegiCQ/vKsaLP+eTWsF42+YADzcl/rw0Fo+mhUClEOqnYDSg0+GYW9eOh34twubMcuj4xD/2N1e1ArGjg7BpSQxC3FXdFAOWWQjVnlh/ug63f5+Dulqt0ffCpFWgJ4ePDkLONUnQCF6n9bUQBgebarEkcwsa6qqg1xvLYrt5+KB0/ir4KM0f9PTs4vSfsb28AKmRSdgwZgZ8lWqqUMFCHK1Dz3owBBgCDIHfDAIOJQiEop7jcP+uYrz5Uz7kajlevTwR1yUFwlutEKqd77MZdMiRb93LmeV4iE/MZIcqgQMihrkj485U3nHQ6Bspbjw6XDsNHE7VanHl5tM4dYQqI8rwxyWx+NfMcEE1EkS9cbR+mQw6gwGF2la8X5qH/+Rn4eDUlRjn5Wf1oCdzQ42uA6Hko0B5FkRNzjozBBgCDAGGwG8BAYcTBAKRfAnWF9ZjTpgn/DVKScLp6FA+29SB6Gf2waDvG0ooePM44OFFI/DcnEi75SKZ9AYOOXXtKK7XYnG0N+QWCjMJltFKRyJMWs4AF2vVLKWakI3DEGAIMAQYAhc9Ak4hCI5CkcoWhz27D7WNlB3Q9pbx0ESMC5LGedB2KdiTDAGGAEOAIcAQGDwIDGmCQN4HE9dmIyOzwmZEI0b4ovD2sVAMprwLNq+GPcgQYAgwBBgCDAFpEBjSBIE8HrcVN2Lem4fMpzW2gtMn14/CdaMCrdrtpYGbjcIQYAgwBBgCDIGhgcAQJwjgbf6+/96DpqYO8YgbOBQ/PgMRniy8Tzx47AmGAEOAIcAQuJgRGPIEgTZn2vuHsTevVvQ+TR4diD3XjYLcnigI0bOyBxgCDAGGAEOAITD4EbgoCMLDu8/ihR/zxKEtkyH9gfGYOMxT3HOsN0OAIcAQYAgwBH4DCFwUBCGntg2JL6T3WznR3B76uqlQ8udpcFMJTdT0G3gb2BIZAgwBhgBDgCFgQuCiIAiUByD2tQwUlDYJ3tgxE4bh8BWJLEmQYMRYR4YAQ4AhwBD4LSFwURAE2rB7N+bjzV+LBSRBpFLScpx6dDLifV1/S3vN1soQYAgwBBgCDAHBCFw0BGF3eRPeyayEu0IGV7mML7LkogDUCjnUchlU9EchAyeXw0OjwI2jgkxplQVjxToyBBgCDAGGAEPgN4PARUMQfjM7xhbKEGAIMAQYAgwBJyDACIITQGZTMAQYAgwBhgBDYKghwAjCUNsxJi9DgCHAEGAIMAScgAAjCE4AmU3BEGAIMAQYAgyBoYYAIwhDbceYvAwBhgBDgCHAEHACAowgOAFkNgVDgCHAEGAIMASGGgL/D98EtW0OCnoWAAAAAElFTkSuQmCC;" vertex="1" parent="1">
          <mxGeometry x="184.35000000000002" y="469.66" width="83.87" height="20" as="geometry" />
        </mxCell>
        <mxCell id="Z6Ugq1CfW-JIsn3a16Bj-46" value="ECR" style="sketch=0;points=[[0,0,0],[0.25,0,0],[0.5,0,0],[0.75,0,0],[1,0,0],[0,1,0],[0.25,1,0],[0.5,1,0],[0.75,1,0],[1,1,0],[0,0.25,0],[0,0.5,0],[0,0.75,0],[1,0.25,0],[1,0.5,0],[1,0.75,0]];outlineConnect=0;fontColor=default;gradientColor=#F78E04;gradientDirection=north;fillColor=#D05C17;strokeColor=#ffffff;dashed=0;verticalLabelPosition=bottom;verticalAlign=top;align=center;html=1;fontSize=12;fontStyle=0;aspect=fixed;shape=mxgraph.aws4.resourceIcon;resIcon=mxgraph.aws4.ecr;labelBackgroundColor=none;" vertex="1" parent="1">
          <mxGeometry x="525" y="211" width="50" height="50" as="geometry" />
        </mxCell>
        <mxCell id="Z6Ugq1CfW-JIsn3a16Bj-56" value="" style="edgeStyle=orthogonalEdgeStyle;rounded=0;orthogonalLoop=1;jettySize=auto;html=1;fontColor=#FFFFFF;startArrow=none;startFill=0;entryX=0.5;entryY=1;entryDx=0;entryDy=0;" edge="1" parent="1" source="Z6Ugq1CfW-JIsn3a16Bj-49" target="Z6Ugq1CfW-JIsn3a16Bj-62">
          <mxGeometry relative="1" as="geometry">
            <mxPoint x="590" y="300" as="targetPoint" />
          </mxGeometry>
        </mxCell>
        <mxCell id="Z6Ugq1CfW-JIsn3a16Bj-60" value="" style="edgeStyle=orthogonalEdgeStyle;rounded=0;orthogonalLoop=1;jettySize=auto;html=1;fontColor=#FFFFFF;startArrow=none;startFill=0;entryX=0;entryY=0.5;entryDx=0;entryDy=0;endArrow=classic;endFill=1;exitX=1;exitY=0.5;exitDx=0;exitDy=0;" edge="1" parent="1" source="Z6Ugq1CfW-JIsn3a16Bj-51" target="Z6Ugq1CfW-JIsn3a16Bj-40">
          <mxGeometry relative="1" as="geometry">
            <Array as="points">
              <mxPoint x="690" y="367" />
            </Array>
          </mxGeometry>
        </mxCell>
        <mxCell id="Z6Ugq1CfW-JIsn3a16Bj-69" value="" style="group" vertex="1" connectable="0" parent="1">
          <mxGeometry x="750" y="540" width="110" height="80" as="geometry" />
        </mxCell>
        <mxCell id="Z6Ugq1CfW-JIsn3a16Bj-61" value="" style="rounded=1;whiteSpace=wrap;html=1;labelBackgroundColor=none;fontColor=#FFFFFF;" vertex="1" parent="Z6Ugq1CfW-JIsn3a16Bj-69">
          <mxGeometry width="110" height="80" as="geometry" />
        </mxCell>
        <mxCell id="Z6Ugq1CfW-JIsn3a16Bj-18" value="Interactive UI" style="shape=image;verticalLabelPosition=bottom;labelBackgroundColor=default;verticalAlign=top;aspect=fixed;imageAspect=0;image=data:image/svg+xml,PHN2ZyB4bWxucz0iaHR0cDovL3d3dy53My5vcmcvMjAwMC9zdmciIGZpbGw9Im5vbmUiIHZpZXdCb3g9IjAgMCAxMDkxIDYzOCIgaGVpZ2h0PSI2MzgiIHdpZHRoPSIxMDkxIj4mI3hhOzxwYXRoIGZpbGw9IiNGRjRCNEIiIGQ9Ik01NDUuNzMxIDIyMS41NDdMNDkzLjEzOSAxOTMuNzQ3TDQwMS44NDcgMTQ1LjQ5N0M0MDEuNzYzIDE0NS40MTMgNDAxLjU5NyAxNDUuNDEzIDQwMS41MTMgMTQ1LjQxM0MzOTguMTggMTQzLjgzIDM5NC43NjMgMTQ3LjE2MyAzOTYuMDEzIDE1MC40OTdMNDQyLjUzIDI2OS4xMzlMNDQyLjUzOSAyNjkuMTY0QzQ0Mi41ODkgMjY5LjI4IDQ0Mi42MyAyNjkuMzk3IDQ0Mi42OCAyNjkuNTE0QzQ0NC41ODkgMjczLjkzOSA0NDguNzU1IDI3Ni42NzIgNDUzLjI4OSAyNzcuNzQ3QzQ1My42NzIgMjc3LjgzIDQ1My45NDYgMjc3LjkwNiA0NTQuNDA2IDI3Ny45OThDNDU0Ljg2NCAyNzguMSA0NTUuNTA1IDI3OC4yMzkgNDU2LjA1NSAyNzguMjhDNDU2LjE0NyAyNzguMjg5IDQ1Ni4yMyAyNzguMjg5IDQ1Ni4zMjIgMjc4LjI5N0g0NTYuMzg5QzQ1Ni40NTUgMjc4LjMwNSA0NTYuNTIyIDI3OC4zMDUgNDU2LjU4OSAyNzguMzE0SDQ1Ni42OEM0NTYuNzM5IDI3OC4zMjIgNDU2LjgwNSAyNzguMzIyIDQ1Ni44NjQgMjc4LjMyMkg0NTYuOTcyQzQ1Ny4wMzkgMjc4LjMzIDQ1Ny4xMDUgMjc4LjMzIDQ1Ny4xNzIgMjc4LjMzVjI3OC4zM0M1MTYuMDg0IDI4NC43NTMgNTc1LjUxOSAyODQuNzUzIDYzNC40MzEgMjc4LjMzVjI3OC4zM0M2MzUuMTM5IDI3OC4zMyA2MzUuODMxIDI3OC4yOTcgNjM2LjQ5NyAyNzguMjNDNjM2LjcxNCAyNzguMjA1IDYzNi45MjIgMjc4LjE4IDYzNy4xMzEgMjc4LjE1NUM2MzcuMTU2IDI3OC4xNDcgNjM3LjE4OSAyNzguMTQ3IDYzNy4yMTQgMjc4LjEzOUM2MzcuMzU2IDI3OC4xMjIgNjM3LjQ5NyAyNzguMDk3IDYzNy42MzkgMjc4LjA3MkM2MzcuODQ3IDI3OC4wNDcgNjM4LjA1NiAyNzguMDA1IDYzOC4yNjQgMjc3Ljk2NEM2MzguNjgxIDI3Ny44NzIgNjM4Ljg3IDI3Ny44MDUgNjM5LjQzNiAyNzcuNjExQzY0MC4wMDEgMjc3LjQxNyA2NDAuOTQgMjc3LjA3NyA2NDEuNTI3IDI3Ni43OTRDNjQyLjExNSAyNzYuNTEgNjQyLjUyMiAyNzYuMjM5IDY0My4wMTQgMjc1LjkzQzY0My42MjIgMjc1LjU0NyA2NDQuMjAxIDI3NS4xNTUgNjQ0Ljc4OCAyNzQuNzE1QzY0NS4wNDEgMjc0LjUyMSA2NDUuMjE0IDI3NC4zOTcgNjQ1LjM5NyAyNzQuMjIyTDY0NS4yOTcgMjc0LjE2NEw1NDUuNzMxIDIyMS41NDdaIi8+JiN4YTs8cGF0aCBmaWxsPSIjN0QzNTNCIiBkPSJNNjg5Ljc2NiAxNDUuNDk4SDY4OS42ODNMNTk4LjM1NyAxOTMuNzQ4TDY0OS4xMjQgMjY5LjM1N0w2OTUuNTI0IDE1MC40OThWMTUwLjMzMUM2OTYuNjkxIDE0Ni44MzEgNjkzLjEwOCAxNDMuNjY1IDY4OS43NjYgMTQ1LjQ5OCIvPiYjeGE7PHBhdGggZmlsbD0iI0JENDA0MyIgZD0iTTU1MC41OTggMTIyLjU1NUM1NDguMjY0IDExOS4xNDcgNTQzLjE4MSAxMTkuMTQ3IDU0MC45MzEgMTIyLjU1NUw0OTMuMTM5IDE5My43NDdMNTQ1LjczMSAyMjEuNTQ3TDY0NS4zOTggMjc0LjIyMkM2NDYuMDI0IDI3My42MDkgNjQ2LjUyNiAyNzMuMDEyIDY0Ny4wNTYgMjcyLjM4MUM2NDcuODA2IDI3MS40NTYgNjQ4LjUwNiAyNzAuNDY0IDY0OS4xMjMgMjY5LjM1Nkw1OTguMzU2IDE5My43NDdMNTUwLjU5OCAxMjIuNTU1WiIvPiYjeGE7PHBhdGggZmlsbD0iIzI2MjczMCIgZD0iTTIxMy43MDUgMzk3LjI5M0gyMzIuMDk3QzIzMS4yNTQgMzczLjYxNCAyMDkuNDE0IDM1NS45MTIgMTc5LjA2NyAzNTUuOTEyQzE0OS4wMjggMzU1LjkxMiAxMjUuNDI1IDM3My4zODQgMTI1LjQyNSAzOTkuNzQ1QzEyNS40MjUgNDIwLjg5NiAxNDAuNzUxIDQzMy40NjQgMTY1LjI3MyA0NDAuNTE0TDE4NC41ODUgNDQ2LjAzMUMyMDEuMTM3IDQ1MC42MjkgMjE1Ljg1MSA0NTYuNDUzIDIxNS44NTEgNDcyLjA4NkMyMTUuODUxIDQ4OS4yNTIgMTk5LjI5OCA1MDAuNTkzIDE3Ny41MzUgNTAwLjU5M0MxNTguODM2IDUwMC41OTMgMTQyLjI4NCA0OTIuMzE3IDE0MC43NTEgNDc0LjUzOEgxMjEuMTMzQzEyMi45NzMgNTAwLjI4NyAxNDMuODE3IDUxNy43NTkgMTc3LjUzNSA1MTcuNzU5QzIxMy43MDUgNTE3Ljc1OSAyMzQuMjQyIDQ5Ny44MzQgMjM0LjI0MiA0NzIuMzkzQzIzNC4yNDIgNDQyLjk2NiAyMDYuMzQ4IDQzMy40NjQgMTkwLjEwMiA0MjkuMTcyTDE3NC4xNjMgNDI0Ljg4MUMxNjIuNTE1IDQyMS44MTUgMTQzLjgxNyA0MTUuNjg1IDE0My44MTcgMzk4LjgyNkMxNDMuODE3IDM4My44MDYgMTU3LjYxIDM3Mi43NzEgMTc4LjQ1NCAzNzIuNzcxQzE5Ny40NTkgMzcyLjc3MSAyMTEuODY2IDM4MS44MTQgMjEzLjcwNSAzOTcuMjkzWk0zMDkuOTExIDM5Ny4yOTNIMjg0Ljc3NlYzNjkuMDkzSDI2Ni42OTFWMzk3LjI5M0gyNDguOTEyVjQxMi42MkgyNjYuNjkxVjQ4Ni4xODZDMjY2LjY5MSA1MDYuNzI0IDI4My4yNDMgNTE2LjUzMyAyOTguNTcgNTE2LjUzM0MzMDUuMzEzIDUxNi41MzMgMzA5LjYwNSA1MTUuMzA3IDMxMi4wNTcgNTE0LjM4N0wzMDguMzc4IDQ5OC4xNDFDMzA2Ljg0NiA0OTguNDQ3IDMwNC4zOTQgNDk5LjA2MSAzMDAuNDA5IDQ5OS4wNjFDMjkyLjQzOSA0OTkuMDYxIDI4NC43NzYgNDk2LjYwOCAyODQuNzc2IDQ4MS4yODJWNDEyLjYySDMwOS45MTFWMzk3LjI5M1pNMzMyLjggNTE1SDM1MC44ODVWNDQwLjUxNEMzNTAuODg1IDQyNC41NzQgMzYzLjQ1MiA0MTIuOTI2IDM4MC42MTggNDEyLjkyNkMzODUuNDQ2IDQxMi45MjYgMzkwLjQyNyA0MTMuODQ2IDM5MS42NTMgNDE0LjE1MlYzOTUuNzYxQzM4OS41ODQgMzk1LjYwNyAzODQuODMzIDM5NS40NTQgMzgyLjE1MSAzOTUuNDU0QzM2OC4wNSAzOTUuNDU0IDM1NS43ODkgNDAzLjQyNCAzNTEuNDk4IDQxNS4wNzJIMzUwLjI3MlYzOTcuMjkzSDMzMi44VjUxNVpNNDU0LjU0MyA1MTcuNDUyQzQ3OC40NTMgNTE3LjQ1MiA0OTUuOTI1IDUwNS40OTggNTAxLjQ0MiA0ODcuNzE5TDQ4My45NyA0ODIuODE1QzQ3OS4zNzIgNDk1LjA3NiA0NjguNzIgNTAxLjIwNiA0NTQuNTQzIDUwMS4yMDZDNDMzLjMxNiA1MDEuMjA2IDQxOC42OCA0ODcuNDg5IDQxNy44MzcgNDYyLjI3N0g1MDMuMjgxVjQ1NC42MTRDNTAzLjI4MSA0MTAuNzggNDc3LjIyNiAzOTUuNzYxIDQ1Mi43MDQgMzk1Ljc2MUM0MjAuODI1IDM5NS43NjEgMzk5LjY3NSA0MjAuODk2IDM5OS42NzUgNDU3LjA2NkMzOTkuNjc1IDQ5My4yMzcgNDIwLjUxOSA1MTcuNDUyIDQ1NC41NDMgNTE3LjQ1MlpNNDE3LjgzNyA0NDYuNjQ0QzQxOS4wNjMgNDI4LjMyOSA0MzIuMDE0IDQxMi4wMDcgNDUyLjcwNCA0MTIuMDA3QzQ3Mi4zMjIgNDEyLjAwNyA0ODQuODkgNDI2LjcyIDQ4NC44OSA0NDYuNjQ0SDQxNy44MzdaTTU2MS4xMTQgNTE3Ljc1OUM1ODEuNjUxIDUxNy43NTkgNTkyLjM4IDUwNi43MjQgNTk2LjA1OCA0OTkuMDYxSDU5Ni45NzhWNTE1SDYxNS4wNjNWNDM3LjQ0OEM2MTUuMDYzIDQwMC4wNTIgNTg2LjU1NiAzOTUuNzYxIDU3MS41MzYgMzk1Ljc2MUM1NTMuNzU3IDM5NS43NjEgNTMzLjUyNiA0MDEuODkxIDUyNC4zMzEgNDIzLjM0OEw1NDEuNDk2IDQyOS40NzlDNTQ1LjQ4MSA0MjAuODk2IDU1NC45MDcgNDExLjcgNTcyLjE0OSA0MTEuN0M1ODguNzc4IDQxMS43IDU5Ni45NzggNDIwLjUxMyA1OTYuOTc4IDQzNS42MDlWNDM2LjIyMkM1OTYuOTc4IDQ0NC45NTggNTg4LjA4OCA0NDQuMTkyIDU2Ni42MzIgNDQ2Ljk1MUM1NDQuNzkxIDQ0OS43ODYgNTIwLjk1OSA0NTQuNjE0IDUyMC45NTkgNDgxLjU4OEM1MjAuOTU5IDUwNC41NzggNTM4LjczNyA1MTcuNzU5IDU2MS4xMTQgNTE3Ljc1OVpNNTYzLjg3MyA1MDEuNTEzQzU0OS40NjYgNTAxLjUxMyA1MzkuMDQ0IDQ5NS4wNzYgNTM5LjA0NCA0ODIuNTA4QzUzOS4wNDQgNDY4LjcxNCA1NTEuNjEyIDQ2NC40MjMgNTY1LjcxMiA0NjIuNTg0QzU3My4zNzUgNDYxLjY2NCA1OTMuOTEzIDQ1OS41MTggNTk2Ljk3OCA0NTUuODRWNDcyLjM5M0M1OTYuOTc4IDQ4Ny4xMDYgNTg1LjMzIDUwMS41MTMgNTYzLjg3MyA1MDEuNTEzWk02NDMuNzU2IDUxNUg2NjEuODQxVjQ0MS40MzNDNjYxLjg0MSA0MjQuMTkxIDY3NC40MDkgNDEyLjAwNyA2ODguNTA5IDQxMi4wMDdDNzAyLjIyNyA0MTIuMDA3IDcxMS44MDYgNDIwLjk3MiA3MTEuODA2IDQzNC4zODNWNTE1SDczMC4xOTdWNDM4LjM2OEM3MzAuMTk3IDQyMy4xOTUgNzM5LjcgNDEyLjAwNyA3NTYuMjUyIDQxMi4wMDdDNzY5LjEyNiA0MTIuMDA3IDc4MC4xNjEgNDE4LjgyNyA3ODAuMTYxIDQzNi4yMjJWNTE1SDc5OC4yNDZWNDM2LjIyMkM3OTguMjQ2IDQwOC41NTggNzgzLjM4IDM5NS43NjEgNzYyLjM4MyAzOTUuNzYxQzc0NS41MjQgMzk1Ljc2MSA3MzMuMTg2IDQwMy41IDcyNy4xMzIgNDE1LjY4NUg3MjUuOTA2QzcyMC4wODIgNDAzLjExNyA3MDkuODEzIDM5NS43NjEgNjk0LjMzMyAzOTUuNzYxQzY3OS4wMDcgMzk1Ljc2MSA2NjcuNjY1IDQwMy4xMTcgNjYyLjc2MSA0MTUuNjg1SDY2MS4yMjhWMzk3LjI5M0g2NDMuNzU2VjUxNVpNODQ1LjA4MiAzNTguMDU4SDgyNi45OTdWNTE1SDg0NS4wODJWMzU4LjA1OFpNODczLjg5MSA1MTVIODkxLjk3NlYzOTcuMjkzSDg3My44OTFWNTE1Wk04ODMuMDg3IDM3Ny42NzVDODkwLjEzNyAzNzcuNjc1IDg5NS45NjEgMzcyLjE1OCA4OTUuOTYxIDM2NS40MTRDODk1Ljk2MSAzNTguNjcxIDg5MC4xMzcgMzUzLjE1MyA4ODMuMDg3IDM1My4xNTNDODc2LjAzNiAzNTMuMTUzIDg3MC4yMTIgMzU4LjY3MSA4NzAuMjEyIDM2NS40MTRDODcwLjIxMiAzNzIuMTU4IDg3Ni4wMzYgMzc3LjY3NSA4ODMuMDg3IDM3Ny42NzVaTTk3MS45NzQgMzk3LjI5M0g5NDYuODM5VjM2OS4wOTNIOTI4Ljc1NFYzOTcuMjkzSDkxMC45NzVWNDEyLjYySDkyOC43NTRWNDg2LjE4NkM5MjguNzU0IDUwNi43MjQgOTQ1LjMwNiA1MTYuNTMzIDk2MC42MzMgNTE2LjUzM0M5NjcuMzc2IDUxNi41MzMgOTcxLjY2OCA1MTUuMzA3IDk3NC4xMiA1MTQuMzg3TDk3MC40NDIgNDk4LjE0MUM5NjguOTA5IDQ5OC40NDcgOTY2LjQ1NyA0OTkuMDYxIDk2Mi40NzIgNDk5LjA2MUM5NTQuNTAyIDQ5OS4wNjEgOTQ2LjgzOSA0OTYuNjA4IDk0Ni44MzkgNDgxLjI4MlY0MTIuNjJIOTcxLjk3NFYzOTcuMjkzWiIvPiYjeGE7PC9zdmc+;" vertex="1" parent="Z6Ugq1CfW-JIsn3a16Bj-69">
          <mxGeometry x="7.100000000000023" width="95.79" height="56" as="geometry" />
        </mxCell>
        <mxCell id="Z6Ugq1CfW-JIsn3a16Bj-71" value="" style="group" vertex="1" connectable="0" parent="1">
          <mxGeometry x="482.5" y="489.66" width="135" height="80" as="geometry" />
        </mxCell>
        <mxCell id="Z6Ugq1CfW-JIsn3a16Bj-72" value="" style="rounded=1;whiteSpace=wrap;html=1;labelBackgroundColor=none;fontColor=#FFFFFF;" vertex="1" parent="Z6Ugq1CfW-JIsn3a16Bj-71">
          <mxGeometry width="135" height="80" as="geometry" />
        </mxCell>
        <mxCell id="Z6Ugq1CfW-JIsn3a16Bj-16" value="Cloudwatch Monitoring" style="sketch=0;points=[[0,0,0],[0.25,0,0],[0.5,0,0],[0.75,0,0],[1,0,0],[0,1,0],[0.25,1,0],[0.5,1,0],[0.75,1,0],[1,1,0],[0,0.25,0],[0,0.5,0],[0,0.75,0],[1,0.25,0],[1,0.5,0],[1,0.75,0]];points=[[0,0,0],[0.25,0,0],[0.5,0,0],[0.75,0,0],[1,0,0],[0,1,0],[0.25,1,0],[0.5,1,0],[0.75,1,0],[1,1,0],[0,0.25,0],[0,0.5,0],[0,0.75,0],[1,0.25,0],[1,0.5,0],[1,0.75,0]];outlineConnect=0;fontColor=default;gradientColor=#F34482;gradientDirection=north;fillColor=#BC1356;strokeColor=#ffffff;dashed=0;verticalLabelPosition=bottom;verticalAlign=top;align=center;html=1;fontSize=12;fontStyle=0;aspect=fixed;shape=mxgraph.aws4.resourceIcon;resIcon=mxgraph.aws4.cloudwatch_2;" vertex="1" parent="Z6Ugq1CfW-JIsn3a16Bj-71">
          <mxGeometry x="44" y="6.999999999999975" width="47" height="47" as="geometry" />
        </mxCell>
        <mxCell id="Z6Ugq1CfW-JIsn3a16Bj-75" style="edgeStyle=orthogonalEdgeStyle;rounded=0;orthogonalLoop=1;jettySize=auto;html=1;exitX=1;exitY=0.5;exitDx=0;exitDy=0;entryX=0.5;entryY=1;entryDx=0;entryDy=0;fontColor=default;startArrow=classic;startFill=1;endArrow=none;endFill=0;" edge="1" parent="1" source="Z6Ugq1CfW-JIsn3a16Bj-72" target="Z6Ugq1CfW-JIsn3a16Bj-40">
          <mxGeometry relative="1" as="geometry">
            <Array as="points">
              <mxPoint x="660" y="530" />
              <mxPoint x="660" y="460" />
              <mxPoint x="805" y="460" />
            </Array>
          </mxGeometry>
        </mxCell>
        <mxCell id="Z6Ugq1CfW-JIsn3a16Bj-76" style="edgeStyle=orthogonalEdgeStyle;rounded=0;orthogonalLoop=1;jettySize=auto;html=1;exitX=0;exitY=0.5;exitDx=0;exitDy=0;fontColor=default;startArrow=none;startFill=0;endArrow=classic;endFill=1;entryX=0.976;entryY=0.553;entryDx=0;entryDy=0;entryPerimeter=0;" edge="1" parent="1" source="Z6Ugq1CfW-JIsn3a16Bj-72" target="Z6Ugq1CfW-JIsn3a16Bj-24">
          <mxGeometry relative="1" as="geometry">
            <mxPoint x="270" y="462" as="targetPoint" />
            <Array as="points">
              <mxPoint x="440" y="530" />
              <mxPoint x="440" y="463" />
            </Array>
          </mxGeometry>
        </mxCell>
      </root>
    </mxGraphModel>
  </diagram>
</mxfile>
